<?xml version="1.0" encoding="UTF-8"?><svg xmlns="http://www.w3.org/2000/svg" xmlns:xlink="http://www.w3.org/1999/xlink" viewBox="0 0 136.5 285.37"><defs><style>.cb{fill:url(#at);}.cc{fill:url(#au);}.cd{fill:url(#c`);}.ce{fill:url(#bo);}.cf{fill:url(#bh);}.cg{fill:url(#by);}.ch{fill:url(#bw);}.ci{fill:url(#bv);}.cj{fill:url(#bi);}.ck{fill:url(#bp);}.cl{fill:url(#bk);}.cm{fill:url(#bj);}.cn{fill:url(#bq);}.co{fill:url(#bs);}.cp{fill:url(#p);}.cp,.cq,.cr,.cs,.ct,.cu,.cv,.cw,.cx,.cy,.d`,.da,.db,.dc,.dd{mix-blend-mode:screen;}.cp,.de{opacity:.8;}.df{fill:url(#bx);}.df,.dg,.dh,.di,.dj{mix-blend-mode:color-dodge;}.dg{fill:url(#bt);}.dh{fill:url(#bu);}.di{fill:url(#ca);}.dk{fill:#c7bcd6;}.dk,.dl{mix-blend-mode:multiply;}.dk,.dl,.dm{opacity:.5;}.dl{fill:url(#bm);}.cq{fill:url(#q);}.cr{fill:url(#av);}.cs{fill:url(#br);}.ct{fill:url(#b`);}.cu{fill:url(#bf);}.cv{fill:url(#bg);}.cw{fill:url(#be);}.cx{fill:url(#bd);}.cy{fill:url(#bb);}.d`{fill:url(#bc);}.da{fill:url(#ba);}.db{fill:url(#ax);}.dc{fill:url(#aw);}.dd{fill:url(#ay);}.dn{isolation:isolate;}.do{fill:url(#s);opacity:.35;}.dp{fill:url(#ad);}.dp,.dq,.dr,.ds,.dt{opacity:.3;}.dq{fill:url(#ap);}.dr{fill:url(#bl);}.ds{fill:url(#d);}.dt{fill:url(#r);}.du{fill:url(#aq);opacity:.4;}.dv{fill:url(#g);opacity:.41;}.dw{fill:url(#af);opacity:.41;}.dx{fill:url(#u);opacity:.44;}.dj{fill:url(#bn);}.dj,.dy,.e`{opacity:.7;}.ea{fill:url(#ag);opacity:.46;}.eb{fill:url(#h);opacity:.45;}.ec{fill:url(#e);opacity:.34;}.ed{fill:url(#ae);opacity:.35;}.ee{fill:url(#f);opacity:.37;}.ef{fill:url(#t);opacity:.39;}.eg{fill:url(#x);opacity:.57;}.eh{fill:url(#ai);opacity:.57;}.ei{fill:url(#ak);opacity:.68;}.ej{fill:url(#aj);opacity:.63;}.ek{fill:url(#m);opacity:.63;}.el{fill:url(#l);opacity:.59;}.em{fill:url(#n);opacity:.66;}.en{fill:url(#a`);opacity:.66;}.eo{fill:url(#i);opacity:.48;}.ep{fill:url(#v);opacity:.48;}.eq{fill:url(#k);opacity:.55;}.dm{fill:url(#ar);}.er{fill:url(#ah);opacity:.52;}.es{fill:url(#j);opacity:.52;}.et{fill:url(#y);opacity:.62;}.eu{fill:url(#w);opacity:.53;}.ev{fill:url(#an);opacity:.85;}.ew{fill:url(#ao);opacity:.9;}.dy{fill:url(#o);}.e`{fill:url(#as);}.de{fill:url(#ac);}.ex{fill:url(#aa);opacity:.71;}.ey{fill:url(#al);opacity:.74;}.f`{fill:url(#ab);opacity:.75;}.fa{fill:url(#am);opacity:.79;}</style><linearGradient id="d" x1="100.92" y1="191.58" x2="55.35" y2="259.08" gradientTransform="matrix(1, 0, 0, 1, 0, 0)" gradientUnits="userSpaceOnUse"><stop offset="0" stop-color="#fff"/><stop offset=".21" stop-color="#f9f5fb"/><stop offset=".56" stop-color="#e9dbf1"/><stop offset=".97" stop-color="#d1b4e3"/></linearGradient><linearGradient id="e" x1="100.66" y1="192.41" x2="56.04" y2="258.49" xlink:href="#d"/><linearGradient id="f" x1="100.41" y1="193.21" x2="56.7" y2="257.95" xlink:href="#d"/><linearGradient id="g" x1="100.17" y1="193.99" x2="57.33" y2="257.45" xlink:href="#d"/><linearGradient id="h" x1="99.93" y1="194.74" x2="57.89" y2="257.01" xlink:href="#d"/><linearGradient id="i" x1="99.7" y1="195.47" x2="58.43" y2="256.6" xlink:href="#d"/><linearGradient id="j" x1="99.32" y1="196.05" x2="58.74" y2="256.14" xlink:href="#d"/><linearGradient id="k" x1="98.84" y1="196.51" x2="58.88" y2="255.71" xlink:href="#d"/><linearGradient id="l" x1="98.29" y1="196.86" x2="58.82" y2="255.32" xlink:href="#d"/><linearGradient id="m" x1="97.75" y1="197.12" x2="58.63" y2="255.06" xlink:href="#d"/><linearGradient id="n" x1="96.96" y1="197.16" x2="58.09" y2="254.72" xlink:href="#d"/><linearGradient id="o" x1="96.08" y1="197.09" x2="57.41" y2="254.37" xlink:href="#d"/><linearGradient id="p" x1="72.78" y1="277.63" x2="60.86" y2="172.64" gradientTransform="matrix(1, 0, 0, 1, 0, 0)" gradientUnits="userSpaceOnUse"><stop offset="0" stop-color="#fff"/><stop offset="1" stop-color="#000"/></linearGradient><linearGradient id="q" x1="72.41" y1="274.59" x2="62.92" y2="191.02" xlink:href="#p"/><linearGradient id="r" x1="61.02" y1="184.59" x2="72.74" y2="291.97" xlink:href="#d"/><linearGradient id="s" x1="61.16" y1="185.73" x2="72.7" y2="291.38" xlink:href="#d"/><linearGradient id="t" x1="61.3" y1="186.87" x2="72.65" y2="290.78" xlink:href="#d"/><linearGradient id="u" x1="61.44" y1="188" x2="72.6" y2="290.2" xlink:href="#d"/><linearGradient id="v" x1="61.57" y1="189.13" x2="72.54" y2="289.61" xlink:href="#d"/><linearGradient id="w" x1="61.7" y1="190.26" x2="72.48" y2="289.02" xlink:href="#d"/><linearGradient id="x" x1="61.82" y1="191.39" x2="72.41" y2="288.44" xlink:href="#d"/><linearGradient id="y" x1="61.94" y1="192.52" x2="72.35" y2="287.86" xlink:href="#d"/><linearGradient id="a`" x1="62.05" y1="193.64" x2="72.28" y2="287.28" xlink:href="#d"/><linearGradient id="aa" x1="62.17" y1="194.77" x2="72.2" y2="286.7" xlink:href="#d"/><linearGradient id="ab" x1="62.27" y1="195.9" x2="72.12" y2="286.12" xlink:href="#d"/><linearGradient id="ac" x1="62.38" y1="197.02" x2="72.04" y2="285.54" xlink:href="#d"/><linearGradient id="ad" x1="73.77" y1="234.81" x2="81.41" y2="304.97" xlink:href="#d"/><linearGradient id="ae" x1="73.56" y1="235.57" x2="80.99" y2="303.83" xlink:href="#d"/><linearGradient id="af" x1="73.34" y1="236.26" x2="80.58" y2="302.73" xlink:href="#d"/><linearGradient id="ag" x1="73.14" y1="236.9" x2="80.19" y2="301.64" xlink:href="#d"/><linearGradient id="ah" x1="72.95" y1="237.48" x2="79.82" y2="300.59" xlink:href="#d"/><linearGradient id="ai" x1="72.78" y1="238.01" x2="79.49" y2="299.55" xlink:href="#d"/><linearGradient id="aj" x1="72.65" y1="238.49" x2="79.19" y2="298.53" xlink:href="#d"/><linearGradient id="ak" x1="72.57" y1="238.93" x2="78.95" y2="297.53" xlink:href="#d"/><linearGradient id="al" x1="72.64" y1="239.32" x2="78.87" y2="296.52" xlink:href="#d"/><linearGradient id="am" x1="72.83" y1="239.69" x2="78.91" y2="295.51" xlink:href="#d"/><linearGradient id="an" x1="73.21" y1="240.01" x2="79.14" y2="294.48" xlink:href="#d"/><linearGradient id="ao" x1="73.93" y1="240.29" x2="79.72" y2="293.42" xlink:href="#d"/><linearGradient id="ap" x1="72.55" y1="236.12" x2="19.93" y2="314.07" xlink:href="#d"/><linearGradient id="aq" x1="70.86" y1="236.9" x2="22.36" y2="308.73" xlink:href="#d"/><linearGradient id="ar" x1="70.19" y1="235.57" x2="24.45" y2="303.31" xlink:href="#d"/><linearGradient id="as" x1="69.42" y1="237.02" x2="28.31" y2="297.9" xlink:href="#d"/><linearGradient id="at" x1="101" y1="131.02" x2="160.92" y2="113.08" gradientTransform="matrix(1, 0, 0, 1, 0, 0)" gradientUnits="userSpaceOnUse"><stop offset=".04" stop-color="#6b24d6"/><stop offset=".29" stop-color="#7733dc"/><stop offset=".79" stop-color="#965bec"/><stop offset="1" stop-color="#a56ef4"/></linearGradient><linearGradient id="au" x1="-333.73" y1="138.11" x2="-261.94" y2="122.01" gradientTransform="translate(-264.69) rotate(-180) scale(1 -1)" xlink:href="#at"/><linearGradient id="av" x1="68.41" y1="182.64" x2="68.41" y2="223.12" gradientTransform="matrix(1, 0, 0, 1, 0, 0)" gradientUnits="userSpaceOnUse"><stop offset="0" stop-color="#f8299a"/><stop offset=".1" stop-color="#c8217c"/><stop offset=".23" stop-color="#94185c"/><stop offset=".36" stop-color="#66103f"/><stop offset=".49" stop-color="#410a28"/><stop offset=".62" stop-color="#240616"/><stop offset=".75" stop-color="#10020a"/><stop offset=".88" stop-color="#040002"/><stop offset="1" stop-color="#000"/></linearGradient><linearGradient id="aw" x1="68.41" y1="182.69" x2="68.41" y2="222.53" gradientTransform="matrix(1, 0, 0, 1, 0, 0)" gradientUnits="userSpaceOnUse"><stop offset="0" stop-color="#f93a9b"/><stop offset=".08" stop-color="#d53185"/><stop offset=".22" stop-color="#9d2462"/><stop offset=".36" stop-color="#6d1944"/><stop offset=".49" stop-color="#46102b"/><stop offset=".63" stop-color="#270918"/><stop offset=".76" stop-color="#11040a"/><stop offset=".88" stop-color="#040102"/><stop offset="1" stop-color="#000"/></linearGradient><linearGradient id="ax" x1="68.41" y1="182.74" x2="68.41" y2="221.94" gradientTransform="matrix(1, 0, 0, 1, 0, 0)" gradientUnits="userSpaceOnUse"><stop offset="0" stop-color="#f94b9c"/><stop offset=".05" stop-color="#e4448f"/><stop offset=".2" stop-color="#a83269"/><stop offset=".35" stop-color="#752349"/><stop offset=".49" stop-color="#4b162f"/><stop offset=".63" stop-color="#2a0c1a"/><stop offset=".77" stop-color="#12050b"/><stop offset=".89" stop-color="#040103"/><stop offset="1" stop-color="#000"/></linearGradient><linearGradient id="ay" x1="68.41" y1="182.79" x2="68.41" y2="221.34" gradientTransform="matrix(1, 0, 0, 1, 0, 0)" gradientUnits="userSpaceOnUse"><stop offset="0" stop-color="#fa5c9e"/><stop offset=".01" stop-color="#f55a9b"/><stop offset=".17" stop-color="#b54272"/><stop offset=".33" stop-color="#7e2e4f"/><stop offset=".49" stop-color="#501d33"/><stop offset=".64" stop-color="#2d101c"/><stop offset=".77" stop-color="#14070c"/><stop offset=".9" stop-color="#050103"/><stop offset="1" stop-color="#000"/></linearGradient><linearGradient id="b`" x1="68.41" y1="182.85" x2="68.41" y2="220.75" gradientTransform="matrix(1, 0, 0, 1, 0, 0)" gradientUnits="userSpaceOnUse"><stop offset="0" stop-color="#fb6d9f"/><stop offset=".14" stop-color="#c3547b"/><stop offset=".32" stop-color="#883b56"/><stop offset=".48" stop-color="#572637"/><stop offset=".64" stop-color="#31151f"/><stop offset=".78" stop-color="#16090e"/><stop offset=".9" stop-color="#050203"/><stop offset="1" stop-color="#000"/></linearGradient><linearGradient id="ba" x1="68.41" y1="182.9" x2="68.41" y2="220.16" gradientTransform="matrix(1, 0, 0, 1, 0, 0)" gradientUnits="userSpaceOnUse"><stop offset="0" stop-color="#fb7ea0"/><stop offset=".1" stop-color="#d56a87"/><stop offset=".29" stop-color="#954a5f"/><stop offset=".47" stop-color="#5f303d"/><stop offset=".63" stop-color="#361b22"/><stop offset=".78" stop-color="#180c0f"/><stop offset=".91" stop-color="#060304"/><stop offset="1" stop-color="#000"/></linearGradient><linearGradient id="bb" x1="68.41" y1="182.95" x2="68.41" y2="219.57" gradientTransform="matrix(1, 0, 0, 1, 0, 0)" gradientUnits="userSpaceOnUse"><stop offset="0" stop-color="#fc8fa1"/><stop offset=".05" stop-color="#ea8595"/><stop offset=".25" stop-color="#a45d69"/><stop offset=".45" stop-color="#693c43"/><stop offset=".62" stop-color="#3c2226"/><stop offset=".78" stop-color="#1b0f11"/><stop offset=".91" stop-color="#070404"/><stop offset="1" stop-color="#000"/></linearGradient><linearGradient id="bc" x1="68.41" y1="183" x2="68.41" y2="218.98" gradientTransform="matrix(1, 0, 0, 1, 0, 0)" gradientUnits="userSpaceOnUse"><stop offset="0" stop-color="#fca0a2"/><stop offset=".21" stop-color="#b67375"/><stop offset=".42" stop-color="#764b4c"/><stop offset=".61" stop-color="#432a2b"/><stop offset=".78" stop-color="#1e1313"/><stop offset=".91" stop-color="#080505"/><stop offset="1" stop-color="#000"/></linearGradient><linearGradient id="bd" x1="68.41" y1="183.05" x2="68.41" y2="218.39" gradientTransform="matrix(1, 0, 0, 1, 0, 0)" gradientUnits="userSpaceOnUse"><stop offset="0" stop-color="#fdb1a3"/><stop offset=".14" stop-color="#ce9085"/><stop offset=".38" stop-color="#865d56"/><stop offset=".59" stop-color="#4c3531"/><stop offset=".77" stop-color="#221816"/><stop offset=".91" stop-color="#090606"/><stop offset="1" stop-color="#000"/></linearGradient><linearGradient id="be" x1="68.41" y1="183.1" x2="68.41" y2="217.79" gradientTransform="matrix(1, 0, 0, 1, 0, 0)" gradientUnits="userSpaceOnUse"><stop offset="0" stop-color="#fec2a5"/><stop offset=".05" stop-color="#eeb69a"/><stop offset=".32" stop-color="#9a7664"/><stop offset=".56" stop-color="#584339"/><stop offset=".76" stop-color="#281e1a"/><stop offset=".91" stop-color="#0b0807"/><stop offset="1" stop-color="#000"/></linearGradient><linearGradient id="bf" x1="68.41" y1="183.15" x2="68.41" y2="217.2" gradientTransform="matrix(1, 0, 0, 1, 0, 0)" gradientUnits="userSpaceOnUse"><stop offset="0" stop-color="#fed3a6"/><stop offset=".23" stop-color="#b69777"/><stop offset=".51" stop-color="#695744"/><stop offset=".74" stop-color="#30281f"/><stop offset=".91" stop-color="#0d0b08"/><stop offset="1" stop-color="#000"/></linearGradient><linearGradient id="bg" x1="68.41" y1="183.2" x2="68.41" y2="216.61" gradientTransform="matrix(1, 0, 0, 1, 0, 0)" gradientUnits="userSpaceOnUse"><stop offset="0" stop-color="#ffe4a7"/><stop offset=".1" stop-color="#e1c993"/><stop offset=".43" stop-color="#827455"/><stop offset=".71" stop-color="#3b3527"/><stop offset=".9" stop-color="#100e0a"/><stop offset="1" stop-color="#000"/></linearGradient><linearGradient id="bh" x1="58.05" y1="175.82" x2="78.63" y2="175.82" gradientTransform="matrix(1, 0, 0, 1, 0, 0)" gradientUnits="userSpaceOnUse"><stop offset=".02" stop-color="#45108a"/><stop offset=".29" stop-color="#3d065f"/><stop offset="1" stop-color="#12054e"/><stop offset="1" stop-color="#10054d"/></linearGradient><linearGradient id="bi" x1="43.67" y1="159.89" x2="92.83" y2="159.89" gradientTransform="matrix(1, 0, 0, 1, 0, 0)" gradientUnits="userSpaceOnUse"><stop offset="0" stop-color="#5c1ccc"/><stop offset=".03" stop-color="#6223cf"/><stop offset=".07" stop-color="#7437d9"/><stop offset=".12" stop-color="#9258e9"/><stop offset=".14" stop-color="#a56ef4"/><stop offset=".23" stop-color="#c994ff"/><stop offset=".28" stop-color="#ae79ef"/><stop offset=".38" stop-color="#7945d1"/><stop offset=".54" stop-color="#4916a1"/><stop offset=".62" stop-color="#4b16a4"/><stop offset=".69" stop-color="#5219af"/><stop offset=".76" stop-color="#5d1ec0"/><stop offset=".82" stop-color="#6b24d6"/><stop offset=".94" stop-color="#5b1dbc"/><stop offset="1" stop-color="#531ab0"/></linearGradient><linearGradient id="bj" x1="29.08" y1="83.36" x2="107.22" y2="83.36" gradientTransform="matrix(1, 0, 0, 1, 0, 0)" gradientUnits="userSpaceOnUse"><stop offset=".01" stop-color="#c1a1d5"/><stop offset=".04" stop-color="#c7abd9"/><stop offset=".1" stop-color="#d9c6e5"/><stop offset=".18" stop-color="#f6f2f9"/><stop offset=".2" stop-color="#fff"/><stop offset=".23" stop-color="#f9f5fb"/><stop offset=".29" stop-color="#e9dbf1"/><stop offset=".36" stop-color="#d1b4e3"/><stop offset=".43" stop-color="#b294d5"/><stop offset=".49" stop-color="#9b7ccb"/><stop offset=".56" stop-color="#8d6ec5"/><stop offset=".61" stop-color="#8969c3"/><stop offset=".76" stop-color="#9371c5"/><stop offset="1" stop-color="#b086cc"/></linearGradient><linearGradient id="bk" x1="53.43" y1="18.02" x2="94.62" y2="34.7" gradientTransform="matrix(1, 0, 0, 1, 0, 0)" gradientUnits="userSpaceOnUse"><stop offset="0" stop-color="#5c1ccc"/><stop offset=".04" stop-color="#6223cf"/><stop offset=".09" stop-color="#7437d9"/><stop offset=".16" stop-color="#9258e9"/><stop offset=".19" stop-color="#a56ef4"/><stop offset=".34" stop-color="#7945d1"/><stop offset=".44" stop-color="#6d37c6"/><stop offset=".6" stop-color="#5e26b9"/><stop offset=".77" stop-color="#551db2"/><stop offset="1" stop-color="#531ab0"/></linearGradient><linearGradient id="bl" x1="86.49" y1="15.89" x2="33.29" y2="41.94" xlink:href="#bk"/><radialGradient id="bm" cx="68.4" cy="-2968.36" fx="68.4" fy="-2968.36" r="55.45" gradientTransform="translate(0 4832.73) scale(1 1.6)" gradientUnits="userSpaceOnUse"><stop offset=".53" stop-color="#fff"/><stop offset=".6" stop-color="#fafafc"/><stop offset=".68" stop-color="#efecf5"/><stop offset=".76" stop-color="#dbd4ea"/><stop offset=".85" stop-color="#c0b4d9"/><stop offset=".95" stop-color="#9d8ac5"/><stop offset="1" stop-color="#8770b8"/></radialGradient><radialGradient id="bn" cx="19138.08" cy="10241.93" fx="19138.08" fy="10241.93" r="66.31" gradientTransform="translate(6798.92 8960.34) rotate(166.02) scale(.23 1)" gradientUnits="userSpaceOnUse"><stop offset="0" stop-color="#972a74"/><stop offset=".02" stop-color="#8c276b"/><stop offset=".11" stop-color="#671c4f"/><stop offset=".21" stop-color="#471336"/><stop offset=".32" stop-color="#2d0c22"/><stop offset=".43" stop-color="#180613"/><stop offset=".57" stop-color="#0a0308"/><stop offset=".73" stop-color="#020001"/><stop offset="1" stop-color="#000"/></radialGradient><linearGradient id="bo" x1="39.5" y1="81.28" x2="60.75" y2="118.07" xlink:href="#bi"/><linearGradient id="bp" x1="30.83" y1="102.21" x2="60.46" y2="102.21" gradientTransform="matrix(1, 0, 0, 1, 0, 0)" gradientUnits="userSpaceOnUse"><stop offset=".04" stop-color="#a56ef4"/><stop offset=".36" stop-color="#c994ff"/><stop offset=".54" stop-color="#b279f5"/><stop offset=".91" stop-color="#7935dc"/><stop offset="1" stop-color="#6b24d6"/></linearGradient><linearGradient id="bq" x1="53.84" y1="116.4" x2="36.99" y2="87.23" gradientTransform="matrix(1, 0, 0, 1, 0, 0)" gradientUnits="userSpaceOnUse"><stop offset=".04" stop-color="#138bbd"/><stop offset=".23" stop-color="#169ac6"/><stop offset=".59" stop-color="#1ec2df"/><stop offset="1" stop-color="#2af6ff"/></linearGradient><linearGradient id="br" x1="33.99" y1="84.89" x2="49.52" y2="104.39" gradientTransform="matrix(1, 0, 0, 1, 0, 0)" gradientUnits="userSpaceOnUse"><stop offset="0" stop-color="#fff"/><stop offset="1" stop-color="#000"/></linearGradient><linearGradient id="bs" x1="50.65" y1="118.75" x2="33.9" y2="89.73" gradientTransform="matrix(1, 0, 0, 1, 0, 0)" gradientUnits="userSpaceOnUse"><stop offset="0" stop-color="#5c1ccc"/><stop offset=".23" stop-color="#ba85ff"/><stop offset=".38" stop-color="#7945d1"/><stop offset=".54" stop-color="#4916a1"/><stop offset=".61" stop-color="#4b16a4"/><stop offset=".68" stop-color="#5219af"/><stop offset=".74" stop-color="#5d1ec0"/><stop offset=".79" stop-color="#6b24d6"/><stop offset=".93" stop-color="#5b1dbc"/><stop offset="1" stop-color="#531ab0"/></linearGradient><radialGradient id="bt" cx="48.56" cy="101.8" fx="48.56" fy="101.8" r="15.9" gradientTransform="matrix(1, 0, 0, 1, 0, 0)" gradientUnits="userSpaceOnUse"><stop offset="0" stop-color="#fff"/><stop offset="1" stop-color="#000"/></radialGradient><radialGradient id="bu" cx="-14744.72" cy="8336.64" fx="-14744.72" fy="8336.64" r="62.2" gradientTransform="translate(1289.9 8960.34) rotate(13.98) scale(.23 -1)" xlink:href="#bn"/><linearGradient id="bv" x1="26.99" y1="185.3" x2="47.37" y2="122.91" gradientTransform="matrix(1, 0, 0, 1, 0, 0)" gradientUnits="userSpaceOnUse"><stop offset=".2" stop-color="#7734dc"/><stop offset=".39" stop-color="#8c4ee7"/><stop offset=".59" stop-color="#a56ef4"/><stop offset=".67" stop-color="#ba8aff"/><stop offset=".8" stop-color="#a067f1"/><stop offset="1" stop-color="#9155ea"/></linearGradient><linearGradient id="bw" x1="26.49" y1="164.17" x2="96.48" y2="143.21" xlink:href="#at"/><radialGradient id="bx" cx="-452.78" cy="-464.34" fx="-452.78" fy="-464.34" r="26.22" gradientTransform="translate(452.08 567.98) scale(.89)" xlink:href="#bt"/><linearGradient id="by" x1="103.54" y1="165.56" x2="92.42" y2="132.67" gradientTransform="matrix(1, 0, 0, 1, 0, 0)" gradientUnits="userSpaceOnUse"><stop offset=".04" stop-color="#6b24d6"/><stop offset=".19" stop-color="#7633db"/><stop offset=".2" stop-color="#7734dc"/><stop offset=".39" stop-color="#8c4ee7"/><stop offset=".59" stop-color="#a56ef4"/><stop offset=".67" stop-color="#ba8aff"/><stop offset=".8" stop-color="#a067f1"/><stop offset="1" stop-color="#9155ea"/></linearGradient><linearGradient id="c`" x1="-317.49" y1="173.05" x2="-208.25" y2="148.56" gradientTransform="translate(-164.09) rotate(-180) scale(1 -1)" xlink:href="#at"/><radialGradient id="ca" cx="89.77" cy="151.96" fx="89.77" fy="151.96" r="23.32" xlink:href="#bt"/></defs><g class="dn"><g id="a"/><g id="b"><g id="c"><g><g><path class="ds" d="M114.65,232.49c-.6,0-1.19,.03-1.77,.08,.1-.45,.16-.9,.16-1.37,0-5.62-7.31-10.17-16.33-10.17-4.54,0-8.65,1.16-11.61,3.02-2.88-3.98-9.3-6.76-16.77-6.76-6.51,0-12.22,2.11-15.49,5.29-2.68-1.71-6.42-2.77-10.56-2.77-7.41,0-13.53,3.4-14.6,7.83-.68-.06-1.38-.1-2.08-.1-8.51,0-15.41,4.3-15.41,9.59s6.9,9.59,15.41,9.59c7.94,0,14.48-3.74,15.31-8.55,.45,.03,.91,.04,1.37,.04,4.31,0,8.17-1.15,10.87-2.98,3.32,3.01,8.88,4.98,15.18,4.98,5.66,0,10.71-1.59,14.09-4.09,2.79,3.13,8.14,5.25,14.29,5.25,1.64,0,3.22-.15,4.72-.43,.18,4.46,6.02,8.04,13.22,8.04s13.24-3.69,13.24-8.25-5.93-8.24-13.24-8.24Z"/><path class="ec" d="M26.25,227.51c.65-.03,1.3-.03,1.97-.02,.89-3.27,4.76-5.98,9.9-6.95,1.41-.27,2.91-.4,4.45-.38,2.38,.03,4.63,.42,6.59,1.09,1.35,.46,2.6,1.02,3.68,1.65,.94-.8,2.04-1.57,3.26-2.28,3.12-1.83,7.41-3.01,12.23-3.01,5.28,0,9.95,1.41,13.12,3.57,1.45,.99,2.7,2.07,3.65,3.19,.8-.45,1.67-.87,2.59-1.27,2.56-1.1,5.67-1.75,9.02-1.75,7.02,0,12.86,2.81,14.95,6.5h0c.06,.1,.11,.2,.16,.31,.45,1,.74,2.04,.76,3.13,0,.45-.04,.9-.12,1.33,.55,0,1.1,0,1.68,.03,1.69,.1,3.34,.35,4.87,.71,.15,.03,.29,.07,.43,.1,.51,.12,.99,.27,1.45,.43,3.96,1.34,6.54,3.92,6.54,6.69,0,2.44-2.04,4.79-5.32,6.17-2.54,1.01-5.37,1.5-8.18,1.33-1.4-.08-2.79-.41-4.14-.77-1.15-.3-2.26-.66-3.27-1.06-.29-.12-.58-.24-.86-.36-1.18-.53-2.21-1.2-3.03-1.95-1.14-1.05-1.86-2.3-2.04-3.63-1.53,.22-3.1,.31-4.7,.23-.59-.03-1.16-.08-1.71-.16-1.44-.19-2.86-.45-4.21-.75-1.09-.24-2.12-.51-3.07-.82-2.12-.69-3.94-1.74-5.3-2.99-1.25,.85-2.71,1.59-4.32,2.15-2.93,1.03-6.33,1.55-9.85,1.4-.68-.03-1.35-.09-2-.17-1.25-.16-2.5-.36-3.69-.58-1.01-.19-2-.39-2.92-.63-2.55-.65-4.82-1.75-6.59-3.11-.16,.1-.33,.19-.49,.29-.29,.16-.59,.31-.9,.46-.08,.04-.16,.07-.24,.11-1.98,.88-4.28,1.7-6.64,2.13-.74,.14-1.54,.24-2.39,.29-.45,.03-.9,.03-1.35,.03-.51,2.11-2.18,4.03-4.68,5.36-3.08,1.63-6.97,2.27-10.85,2.17-7.74-.21-13.46-4.29-13.08-9.12,.09-1.09,.41-2.14,1.06-3.09,.16-.23,.33-.47,.52-.69,2.47-2.93,7.47-5.05,13.08-5.29Z"/><path class="ee" d="M26.9,227.48c.59-.06,1.21-.1,1.85-.13,.94-3.07,4.73-5.65,9.78-6.52,1.38-.24,2.84-.35,4.33-.32,2.32,.06,4.49,.47,6.38,1.15,1.3,.47,2.52,1,3.59,1.57,.98-.72,2.1-1.46,3.3-2.2,3-1.84,7.27-3.09,12.19-3.09,5.38,0,10.06,1.5,13.06,3.67,1.41,1.02,2.69,2.08,3.71,3.08,.81-.4,1.69-.81,2.61-1.23,2.52-1.13,5.65-1.79,9-1.79,7.01,0,12.69,2.85,14.57,6.35h0c.05,.09,.09,.19,.14,.31,.36,.99,.65,2.01,.69,3.07,.02,.44-.02,.87-.07,1.29,.51,.03,1.04,.07,1.58,.13,1.62,.19,3.25,.5,4.77,.81,.14,.03,.29,.06,.43,.09,.51,.11,.98,.24,1.44,.38,4.09,1.24,6.69,3.77,6.69,6.32,0,2.26-2.1,4.62-5.59,5.85-2.82,.91-5.64,1.22-8.16,.89-1.28-.17-2.59-.67-3.92-1.08-1.13-.35-2.24-.7-3.27-1.07-.3-.1-.59-.21-.87-.32-1.19-.45-2.24-1.04-3.1-1.72-1.19-.95-1.99-2.09-2.29-3.32-1.56,.15-3.13,.18-4.68,.02-.59-.06-1.15-.15-1.68-.26-1.4-.28-2.82-.58-4.18-.85-1.09-.22-2.13-.41-3.08-.63-2.06-.48-3.91-1.36-5.37-2.44-1.28,.8-2.76,1.49-4.39,1.99-3.01,.94-6.44,1.32-9.87,1.02-.68-.06-1.33-.16-1.97-.28-1.23-.23-2.47-.46-3.67-.65-1.01-.17-2-.31-2.92-.47-2.48-.44-4.78-1.37-6.67-2.6-.17,.09-.33,.17-.51,.26-.3,.14-.6,.28-.92,.41-.08,.03-.17,.07-.25,.1-2.03,.79-4.31,1.74-6.49,2.35-.67,.19-1.45,.34-2.31,.45-.44,.05-.88,.07-1.33,.1-.63,1.99-2.38,3.82-4.96,4.98-3.37,1.52-7.29,1.72-10.78,1.51-6.96-.41-11.52-4.23-10.75-8.65,.17-.97,.47-1.92,1.12-2.78,.16-.21,.32-.42,.51-.62,2.45-2.65,7.18-4.69,12.28-5.16Z"/><path class="dv" d="M27.55,227.45c.54-.08,1.12-.17,1.74-.25,.99-2.87,4.7-5.32,9.66-6.09,1.35-.21,2.77-.3,4.21-.25,2.25,.09,4.36,.51,6.17,1.2,1.25,.48,2.44,.98,3.5,1.49,1.02-.64,2.16-1.36,3.34-2.12,2.87-1.85,7.13-3.17,12.16-3.17,5.49,0,10.16,1.58,13.01,3.78,1.37,1.06,2.68,2.09,3.77,2.98,.83-.36,1.72-.75,2.63-1.18,2.49-1.16,5.63-1.84,8.98-1.84,7,0,12.51,2.89,14.18,6.19h0c.04,.08,.08,.18,.12,.3,.29,.98,.56,1.97,.62,3,.02,.43,0,.85-.02,1.26,.48,.07,.97,.14,1.49,.24,1.55,.29,3.16,.64,4.68,.92,.14,.03,.29,.05,.43,.08,.51,.09,.98,.21,1.43,.33,4.22,1.13,6.84,3.63,6.84,5.96,0,2.07-2.17,4.44-5.86,5.54-3.1,.8-5.93,.93-8.14,.46-1.17-.25-2.39-.92-3.71-1.39-1.11-.39-2.22-.75-3.26-1.07-.3-.09-.59-.18-.88-.27-1.19-.37-2.27-.88-3.18-1.49-1.25-.84-2.12-1.88-2.53-3.01-1.59,.09-3.16,.04-4.66-.19-.58-.09-1.13-.22-1.65-.36-1.36-.37-2.78-.71-4.14-.95-1.08-.19-2.13-.32-3.08-.45-2.01-.28-3.88-.99-5.44-1.88-1.32,.75-2.82,1.38-4.46,1.83-3.1,.84-6.55,1.09-9.88,.64-.67-.09-1.32-.23-1.94-.38-1.2-.3-2.44-.55-3.65-.73-1.01-.15-2-.23-2.92-.32-2.41-.23-4.75-1-6.75-2.08-.17,.08-.34,.16-.52,.23-.3,.13-.62,.25-.93,.36-.09,.03-.17,.06-.26,.09-2.09,.71-4.33,1.78-6.34,2.57-.6,.23-1.35,.45-2.22,.61-.43,.08-.87,.12-1.32,.17-.76,1.87-2.58,3.61-5.23,4.61-3.68,1.39-7.6,1.17-10.72,.86-6.17-.61-9.59-4.13-8.43-8.17,.25-.85,.53-1.7,1.18-2.46,.16-.18,.32-.37,.5-.55,2.43-2.37,6.89-4.32,11.48-5.03Z"/><path class="eb" d="M28.2,227.42c.48-.11,1.02-.24,1.63-.36,1.04-2.67,4.67-4.99,9.54-5.67,1.32-.19,2.7-.25,4.09-.18,2.19,.12,4.23,.56,5.97,1.26,1.2,.49,2.37,.96,3.41,1.4,1.05-.56,2.21-1.26,3.37-2.04,2.74-1.85,6.99-3.25,12.12-3.25,5.59,0,10.27,1.68,12.95,3.88,1.33,1.1,2.67,2.1,3.83,2.88,.84-.31,1.74-.69,2.65-1.13,2.46-1.2,5.61-1.89,8.96-1.89,6.99,0,12.34,2.93,13.8,6.04h0c.04,.07,.07,.16,.1,.3,.21,.96,.47,1.93,.55,2.94,.03,.42,.03,.82,.03,1.22,.44,.11,.91,.22,1.4,.35,1.48,.39,3.06,.78,4.58,1.03,.14,.02,.29,.05,.43,.07,.51,.07,.98,.18,1.42,.28,4.36,1.02,6.99,3.48,6.99,5.59,0,1.88-2.23,4.27-6.13,5.23-3.38,.7-6.15,.24-8.13,.02-.99-.55-2.19-1.17-3.49-1.7-1.08-.44-2.2-.8-3.26-1.08-.3-.08-.6-.15-.89-.23-1.2-.3-2.3-.73-3.25-1.26-1.3-.73-2.26-1.66-2.78-2.69-1.62,.02-3.19-.09-4.64-.39-.58-.12-1.12-.28-1.61-.46-1.32-.46-2.74-.84-4.11-1.05-1.08-.17-2.14-.23-3.08-.27-1.95-.08-3.85-.61-5.51-1.33-1.35,.7-2.88,1.28-4.53,1.67-3.18,.75-6.67,.86-9.9,.25-.67-.12-1.3-.3-1.9-.49-1.17-.38-2.42-.65-3.63-.81-1.01-.13-2.01-.16-2.92-.17-2.33-.02-4.72-.63-6.82-1.56-.17,.07-.35,.14-.53,.2-.31,.11-.63,.22-.95,.31-.09,.02-.18,.05-.26,.07-2.14,.62-4.35,1.82-6.19,2.79-.53,.28-1.26,.55-2.14,.77-.41,.1-.85,.17-1.3,.23-.88,1.75-2.79,3.38-5.51,4.24-4,1.26-7.92,.62-10.65,.2-5.38-.81-8.36-4.33-6.1-7.7,.17-.76,.59-1.48,1.24-2.14,.16-.16,.32-.32,.49-.48,2.41-2.09,6.6-3.96,10.67-4.9Z"/><path class="eo" d="M28.85,227.38c.43-.14,.93-.32,1.51-.48,1.1-2.47,4.64-4.66,9.42-5.24,1.29-.16,2.63-.2,3.97-.11,2.12,.14,4.09,.61,5.76,1.32,1.16,.5,2.29,.94,3.33,1.32,1.09-.48,2.27-1.15,3.41-1.96,2.62-1.86,6.85-3.33,12.08-3.33,5.7,0,10.38,1.77,12.89,3.99,1.29,1.14,2.66,2.1,3.88,2.77,.86-.27,1.77-.63,2.66-1.08,2.43-1.23,5.59-1.94,8.94-1.94,6.98,0,12.17,2.97,13.42,5.89h0c.03,.06,.05,.15,.08,.29,.15,.94,.38,1.9,.48,2.87,.04,.4,.06,.8,.08,1.18,.41,.15,.84,.3,1.3,.46,1.42,.49,2.97,.92,4.49,1.13,.14,.02,.29,.04,.43,.05,.52,.06,.97,.14,1.41,.23,4.5,.89,7.14,3.33,7.14,5.23,0,1.7-2.29,4.09-6.41,4.91-3.67,.6-6.42-.14-8.11-.42-.86-.69-1.98-1.42-3.27-2.01-1.06-.48-2.18-.85-3.26-1.09-.3-.07-.6-.13-.9-.18-1.2-.22-2.32-.57-3.32-1.03-1.35-.62-2.39-1.45-3.03-2.38-1.65-.04-3.22-.23-4.62-.6-.58-.16-1.11-.35-1.58-.56-1.28-.56-2.7-.96-4.08-1.15-1.08-.14-2.14-.14-3.08-.08-1.88,.11-3.82-.24-5.57-.78-1.38,.65-2.93,1.18-4.59,1.51-3.27,.65-6.78,.62-9.91-.13-.66-.16-1.29-.37-1.87-.59-1.15-.45-2.39-.75-3.61-.89-1.01-.11-2.01-.09-2.92-.02-2.25,.17-4.68-.25-6.9-1.04-.18,.06-.36,.12-.54,.18-.32,.1-.64,.18-.97,.26-.09,.02-.18,.04-.27,.06-2.19,.53-4.36,1.84-6.04,3.01-.46,.32-1.16,.65-2.06,.93-.4,.12-.83,.21-1.28,.3-1,1.63-3,3.15-5.78,3.86-4.31,1.11-8.22,.07-10.59-.45-4.58-1.01-6.6-4.34-3.77-7.23,.22-.66,.65-1.26,1.3-1.82,.15-.13,.31-.28,.49-.41,2.4-1.81,6.31-3.6,9.87-4.77Z"/><path class="es" d="M29.5,227.35c.37-.17,.83-.39,1.4-.59,1.15-2.27,4.61-4.33,9.3-4.81,1.26-.13,2.56-.15,3.85-.05,2.06,.17,3.96,.65,5.55,1.38,1.11,.5,2.21,.92,3.24,1.23,1.13-.4,2.33-1.04,3.45-1.88,2.49-1.86,6.71-3.41,12.05-3.41,5.8,0,10.48,1.87,12.84,4.09,1.25,1.18,2.65,2.11,3.94,2.67,.87-.22,1.79-.57,2.68-1.04,2.4-1.26,5.57-1.98,8.93-1.98,6.96,0,11.99,3.01,13.04,5.73h0s.04,.14,.06,.29c.08,.92,.29,1.86,.41,2.8,.05,.39,.09,.77,.12,1.14,.37,.19,.78,.38,1.21,.57,1.35,.6,2.88,1.07,4.39,1.24,.14,.02,.29,.03,.43,.04,.52,.04,.97,.11,1.4,.18,4.64,.77,7.28,3.19,7.28,4.86,0,1.51-2.36,3.91-6.68,4.6-3.95,.5-6.68-.53-8.1-.85-.73-.82-1.78-1.68-3.05-2.32-1.04-.53-2.17-.89-3.26-1.1-.31-.06-.61-.1-.91-.14-1.2-.14-2.35-.42-3.39-.8-1.4-.52-2.52-1.24-3.28-2.07-1.69-.11-3.25-.37-4.6-.81-.58-.19-1.09-.42-1.54-.66-1.24-.66-2.66-1.09-4.05-1.25-1.08-.12-2.14-.05-3.09,.1-1.82,.29-3.79,.14-5.64-.23-1.42,.6-2.99,1.07-4.66,1.34-3.36,.54-6.89,.37-9.92-.51-.66-.19-1.27-.43-1.84-.7-1.12-.52-2.37-.85-3.59-.96-1.01-.09-2.01-.02-2.92,.14-2.17,.36-4.65,.12-6.97-.52-.18,.05-.36,.1-.55,.15-.33,.08-.65,.15-.98,.21-.09,.02-.18,.03-.28,.05-2.25,.44-4.38,1.85-5.89,3.23-.39,.36-1.07,.75-1.97,1.09-.39,.15-.82,.26-1.27,.37-1.13,1.51-3.21,2.91-6.06,3.49-4.63,.95-8.52-.48-10.52-1.11-3.77-1.19-4.84-4.34-1.44-6.75,.26-.55,.71-1.05,1.35-1.51,.15-.11,.31-.23,.48-.34,2.39-1.53,6.03-3.25,9.07-4.64Z"/><path class="eq" d="M30.15,227.32c.32-.2,.74-.46,1.29-.71,1.2-2.07,4.58-4,9.18-4.38,1.23-.11,2.49-.1,3.73,.02,1.99,.2,3.83,.7,5.35,1.43,1.06,.51,2.14,.9,3.15,1.15,1.17-.32,2.39-.94,3.48-1.79,2.37-1.86,6.57-3.49,12.01-3.49,5.91,0,10.58,1.97,12.78,4.19,1.21,1.22,2.64,2.12,4,2.57,.89-.18,1.81-.51,2.7-.99,2.37-1.29,5.55-2.03,8.91-2.03,6.95,0,11.82,3.05,12.65,5.58h0s.03,.12,.03,.28c.02,.9,.2,1.82,.34,2.74,.06,.38,.11,.75,.17,1.11,.34,.23,.71,.45,1.12,.67,1.28,.7,2.79,1.21,4.3,1.35,.14,.01,.29,.02,.43,.03,.52,.03,.97,.08,1.39,.13,4.79,.63,7.43,3.04,7.43,4.5,0,1.32-2.42,3.74-6.95,4.29-4.23,.4-6.94-.91-8.08-1.29-.59-.96-1.58-1.93-2.83-2.63-1.02-.57-2.15-.94-3.26-1.1-.31-.05-.62-.07-.92-.09-1.21-.07-2.38-.26-3.47-.57-1.45-.41-2.65-1.03-3.53-1.76-1.72-.17-3.28-.51-4.58-1.02-.58-.22-1.08-.49-1.51-.75-1.2-.75-2.62-1.22-4.02-1.35-1.08-.09-2.14,.03-3.09,.29-1.76,.47-3.76,.52-5.71,.33-1.45,.55-3.05,.97-4.73,1.18-3.45,.44-7.01,.12-9.94-.89-.65-.23-1.26-.5-1.81-.8-1.1-.6-2.34-.95-3.58-1.04-1.01-.08-2.01,.05-2.92,.29-2.1,.55-4.62,.49-7.05,0-.18,.04-.37,.08-.56,.12-.33,.06-.66,.12-1,.16-.09,.01-.19,.02-.28,.04-2.3,.35-4.41,1.84-5.73,3.44-.32,.39-.98,.85-1.89,1.25-.38,.17-.8,.3-1.25,.44-1.25,1.38-3.43,2.66-6.34,3.12-4.96,.78-8.8-1.01-10.46-1.76-2.95-1.34-3.08-4.35,.89-6.28,.3-.44,.77-.83,1.41-1.19,.15-.08,.31-.18,.47-.26,2.39-1.24,5.75-2.91,8.27-4.51Z"/><path class="el" d="M30.8,227.29c.26-.23,.65-.53,1.17-.82,1.25-1.87,4.55-3.67,9.06-3.96,1.2-.08,2.42-.05,3.61,.09,1.93,.23,3.7,.75,5.14,1.49,1.01,.52,2.06,.88,3.06,1.07,1.21-.24,2.45-.83,3.52-1.71,2.25-1.86,6.43-3.57,11.97-3.57,6.02,0,10.68,2.07,12.72,4.3,1.16,1.26,2.63,2.13,4.05,2.46,.9-.13,1.84-.44,2.72-.94,2.33-1.32,5.52-2.08,8.89-2.08,6.94,0,11.65,3.09,12.27,5.42h0s.02,.11,.01,.28c-.03,.88,.11,1.79,.27,2.67,.07,.37,.14,.72,.22,1.07,.3,.27,.65,.53,1.02,.78,1.21,.81,2.7,1.35,4.2,1.46,.14,0,.29,.02,.43,.02,.52,0,.97,.04,1.38,.08,4.93,.49,7.58,2.89,7.58,4.13,0,1.14-2.48,3.56-7.22,3.97-4.51,.3-7.21-1.29-8.07-1.73-.46-1.1-1.38-2.18-2.61-2.94-.99-.61-2.13-.99-3.25-1.11-.31-.03-.62-.05-.93-.05-1.21,0-2.4-.11-3.54-.34-1.5-.31-2.78-.82-3.78-1.44-1.75-.24-3.31-.66-4.56-1.22-.58-.26-1.07-.56-1.47-.85-1.16-.85-2.58-1.36-3.99-1.45-1.08-.07-2.14,.11-3.09,.47-1.7,.65-3.73,.89-5.78,.88-1.48,.5-3.11,.86-4.8,1.02-3.54,.33-7.12-.13-9.95-1.27-.65-.26-1.24-.57-1.78-.91-1.07-.67-2.32-1.05-3.56-1.12-1.01-.06-2.01,.11-2.92,.44-2.02,.73-4.58,.87-7.12,.52-.19,.03-.38,.06-.57,.09-.34,.05-.68,.09-1.01,.11-.1,0-.19,.02-.29,.03-2.36,.26-4.46,1.83-5.58,3.66-.26,.42-.89,.94-1.81,1.41-.37,.19-.79,.35-1.23,.51-1.37,1.26-3.64,2.41-6.61,2.75-5.28,.6-9.07-1.52-10.39-2.42-2.12-1.45-1.31-4.36,3.22-5.81,.35-.33,.83-.62,1.47-.87,.15-.06,.3-.13,.46-.19,2.39-.94,5.46-2.58,7.47-4.38Z"/><path class="ek" d="M31.44,227.26c.2-.27,.55-.6,1.06-.94,1.3-1.67,4.52-3.34,8.94-3.53,1.17-.05,2.35,0,3.48,.15,1.86,.26,3.56,.79,4.93,1.55,.96,.53,1.98,.86,2.97,.98,1.24-.16,2.51-.72,3.56-1.63,2.13-1.85,6.29-3.65,11.94-3.65,6.12,0,10.77,2.17,12.67,4.4,1.11,1.31,2.62,2.14,4.11,2.36,.92-.09,1.86-.38,2.74-.9,2.3-1.35,5.5-2.12,8.87-2.12,6.93,0,11.47,3.13,11.89,5.27h0s.01,.1,0,.27c-.08,.86,.02,1.75,.2,2.61,.07,.35,.16,.7,.27,1.03,.27,.31,.58,.61,.93,.89,1.14,.92,2.61,1.49,4.11,1.56,.14,0,.29,0,.43,0,.53,0,.96,0,1.37,.03,5.07,.33,7.73,2.75,7.73,3.77,0,.95-2.55,3.39-7.49,3.66-4.79,.2-7.47-1.67-8.05-2.16-.33-1.24-1.18-2.43-2.4-3.25-.97-.66-2.11-1.04-3.25-1.12-.31-.02-.63-.02-.94,0-1.21,.08-2.43,.04-3.61-.11-1.55-.21-2.91-.61-4.03-1.13-1.78-.3-3.33-.8-4.54-1.43-.57-.3-1.05-.63-1.44-.95-1.12-.95-2.54-1.49-3.96-1.55-1.08-.05-2.15,.19-3.09,.65-1.64,.81-3.7,1.27-5.85,1.43-1.52,.45-3.16,.75-4.87,.86-3.62,.22-7.22-.38-9.97-1.65-.64-.3-1.23-.64-1.75-1.01-1.04-.74-2.29-1.15-3.54-1.19-1.01-.04-2.02,.18-2.92,.59-1.95,.9-4.55,1.24-7.2,1.04-.19,.02-.39,.05-.58,.06-.35,.03-.69,.05-1.03,.06-.1,0-.2,0-.3,.01-2.41,.18-4.52,1.82-5.43,3.88-.2,.46-.8,1.04-1.72,1.57-.36,.21-.77,.4-1.22,.58-1.5,1.14-3.85,2.15-6.89,2.37-5.6,.41-9.36-1.99-10.33-3.07-1.32-1.47,.67-3.56,5.54-5.33,.42-.15,.88-.4,1.53-.56,.15-.04,.3-.08,.45-.12,2.39-.64,5.15-2.27,6.66-4.25Z"/><path class="em" d="M32.09,227.23c.14-.3,.46-.67,.95-1.05,1.35-1.47,4.49-3,8.82-3.1,1.14-.03,2.28,.05,3.36,.22,1.8,.29,3.43,.84,4.73,1.61,.91,.54,1.91,.84,2.88,.9,1.28-.08,2.57-.61,3.59-1.55,2.01-1.85,6.15-3.73,11.9-3.73,6.23,0,10.86,2.28,12.61,4.5,1.07,1.35,2.61,2.15,4.17,2.26,.93-.04,1.89-.32,2.75-.85,2.27-1.38,5.48-2.17,8.85-2.17,6.91,0,11.3,3.17,11.51,5.12h0s0,.09-.03,.26c-.13,.84-.06,1.71,.13,2.54,.08,.34,.19,.68,.32,1,.23,.35,.51,.69,.84,1,1.07,1.03,2.52,1.64,4.01,1.67,.14,0,.29,0,.43,0,.53-.03,.96-.03,1.36-.02,5.22,.17,7.88,2.6,7.88,3.4s-2.61,3.21-7.76,3.35c-5.08,.1-7.73-2.05-8.04-2.6-.19-1.37-.98-2.67-2.18-3.56-.95-.7-2.09-1.09-3.25-1.13-.32-.01-.63,0-.95,.04-1.22,.16-2.46,.19-3.68,.12-1.6-.1-3.04-.4-4.27-.82-1.81-.37-3.36-.95-4.53-1.64-.57-.33-1.04-.69-1.41-1.05-1.07-1.05-2.5-1.62-3.93-1.65-1.08-.02-2.16,.26-3.1,.84-1.59,.98-3.67,1.64-5.92,1.98-1.55,.4-3.22,.64-4.94,.7-3.71,.11-7.33-.64-9.98-2.03-.64-.33-1.21-.71-1.72-1.12-1.01-.82-2.27-1.25-3.52-1.27-1.01-.02-2.02,.24-2.92,.74-1.89,1.07-4.52,1.61-7.27,1.56-.2,.02-.39,.03-.59,.04-.35,.02-.7,.02-1.05,.01-.1,0-.2,0-.3,0-2.46,.09-4.6,1.81-5.28,4.1-.15,.49-.71,1.13-1.64,1.73-.35,.23-.75,.44-1.2,.65-1.62,1.02-4.06,1.89-7.17,2-5.91,.21-9.72-2.42-10.27-3.73-.61-1.45,2.27-3.92,7.87-4.86,.44-.07,.94-.19,1.59-.24,.15-.01,.3-.03,.45-.05,2.39-.33,4.83-1.96,5.86-4.12Z"/><path class="dy" d="M114.65,242.1c-5.36,0-8-2.44-8.02-3.04-.06-1.51-.78-2.92-1.96-3.87-.93-.74-2.08-1.14-3.25-1.14-.32,0-.64,.03-.96,.09-1.22,.23-2.49,.35-3.76,.35-5.03,0-8.85-1.76-10.4-3.5-1.03-1.15-2.46-1.75-3.89-1.75-1.08,0-2.17,.33-3.1,1.02-2.6,1.92-6.71,3.07-10.99,3.07-4.73,0-9.21-1.39-11.68-3.63-.99-.89-2.24-1.35-3.5-1.35-1.01,0-2.03,.3-2.92,.9-1.96,1.33-4.86,2.09-7.95,2.09-.36,0-.71-.01-1.06-.03-.1,0-.21,0-.31,0-2.52,0-4.7,1.81-5.13,4.32-.26,1.48-3.98,4.23-10.18,4.23s-10.2-2.88-10.2-4.38,3.97-4.38,10.2-4.38c.47,0,1,.03,1.65,.08,.15,.01,.29,.02,.44,.02,2.38,0,4.49-1.63,5.06-3.99,.32-1.34,3.88-3.84,9.54-3.84,2.98,0,5.81,.71,7.76,1.95,.86,.55,1.83,.81,2.79,.81,1.32,0,2.63-.5,3.63-1.47,1.9-1.84,6.01-3.81,11.86-3.81,6.33,0,10.95,2.39,12.55,4.61,1.01,1.4,2.6,2.15,4.22,2.15,.95,0,1.91-.26,2.77-.8,2.24-1.41,5.46-2.22,8.83-2.22,6.9,0,11.12,3.21,11.12,4.96h0s0,.08-.05,.26c-.35,1.61,.08,3.3,1.17,4.54,.99,1.13,2.42,1.78,3.92,1.78,.14,0,.29,0,.43-.02,.53-.04,.96-.06,1.35-.06,5.36,0,8.03,2.46,8.03,3.03s-2.68,3.04-8.03,3.04Z"/></g><path class="cp" d="M58.61,175.62c-12.16,38.55-14.06,53.67-33.8,65.51-41.31,24.79,82.79,29.22,95.78,18.94,12.99-10.28-20.9-16.55-26.52-35.71-9.58-32.7-16.01-49.43-16.01-49.43l-19.45,.69Z"/><path class="cq" d="M60.88,177.23c-9.72,37.86-11.25,52.7-27.04,64.33-33.05,24.35,66.23,28.69,76.62,18.6,10.39-10.1-16.72-16.25-21.21-35.07-7.66-32.11-12.81-48.55-12.81-48.55l-15.56,.68Z"/><g><path class="dt" d="M136.5,254.11c0-6.33-8.24-11.46-18.41-11.46-.25,0-.48,.02-.72,.02,0-.12,.03-.25,.03-.37,0-6.33-8.24-11.46-18.41-11.46-.58,0-1.16,.02-1.73,.05-.65-2.79-5.49-4.96-11.38-4.96-6.33,0-11.46,2.51-11.46,5.6,0,2.56,3.52,4.72,8.33,5.38-1.38,1.61-2.16,3.44-2.16,5.38,0,3.78,2.95,7.12,7.47,9.2-4.39,.98-8.13,2.79-10.75,5.13-2.1-1.17-5.18-1.92-8.62-1.92-2.82,0-5.39,.5-7.38,1.32-3.17-6.13-12.39-10.56-23.29-10.56-.5,0-1,.01-1.49,.03-.51-1.78-1.68-3.41-3.33-4.8,3.75-.92,6.32-2.81,6.32-5,0-3.09-5.13-5.6-11.46-5.6s-11.46,2.51-11.46,5.6c0,.14,.02,.27,.04,.4-9.33,.56-16.62,5.45-16.62,11.41,0,3.92,3.17,7.37,7.99,9.44-.67,.71-1.05,1.5-1.05,2.33,0,2.39,3.06,4.42,7.37,5.23,2.51,6.1,10.94,10.73,21.25,11.36,1.98,1.68,5.68,2.82,9.94,2.82,1.14,0,2.23-.08,3.27-.23,2.82,4.07,9.3,6.92,16.88,6.92,5.82,0,10.98-1.69,14.36-4.32,1.26,.23,2.62,.37,4.05,.37,4.49,0,8.36-1.26,10.24-3.1,.41,.01,.81,.05,1.22,.05,10.02,0,15.92-4.09,19.16-7.65,.21,0,.42,.02,.64,.02,6.33,0,11.46-2.51,11.46-5.6,0-.16-.02-.31-.05-.46,4.78-1.22,9.77-4.06,9.77-10.57Z"/><path class="do" d="M16.62,236.22c.1-1.15,1.03-2.26,2.4-3.22,.74-.51,1.59-.99,2.53-1.4,1.76-.62,4-1.03,6.5-1.03,1.28,0,2.5,.11,3.62,.29,1.66,.34,3.13,1.02,4.32,1.88,1.5,1.08,2.51,2.4,2.64,3.77,.08,.87-.27,1.67-.9,2.43-.98,1.18-2.42,2.17-4.25,2.67,.06,.04,.11,.08,.16,.13,.34,.26,.67,.53,.97,.81,1.12,1.04,1.96,2.2,2.44,3.45,.5,0,.99-.01,1.49,0,5.58,.11,10.62,1.38,14.46,3.4,1.75,.92,3.4,1.94,4.82,2.97,.55,.4,1.07,.8,1.54,1.21,.98,.85,1.81,1.8,2.47,2.82,.45-.17,.93-.33,1.44-.46,1.79-.48,3.85-.71,5.97-.63,.9,.04,1.79,.11,2.64,.2,1.34,.14,2.6,.34,3.7,.61,.81,.19,1.55,.45,2.21,.75,1.61-1.39,3.63-2.58,5.95-3.5,1.52-.6,3.12-1.18,4.75-1.67-.38-.22-.75-.46-1.11-.7-1.88-1.26-3.52-2.77-4.69-4.34-.95-1.28-1.49-2.7-1.57-4.17-.04-.64,.01-1.26,.16-1.87,.17-.69,.46-1.36,.85-2.01,.31-.51,.66-1.01,1.05-1.5-1.18-.27-2.3-.68-3.33-1.13-2.04-.9-3.65-2.04-4.37-3.29-.21-.36-.33-.74-.36-1.13,.09-1.49,1.47-2.84,3.64-3.76,2.06-.87,4.72-1.36,7.57-1.3,.87,.02,1.69,.09,2.46,.19,4.07,.64,7.39,2.33,8.34,4.32,.06,.12,.11,.25,.14,.38,.55-.03,1.11-.05,1.67-.05,.17,0,.33,0,.5,0,9.67,.15,17.35,5.04,17.45,10.91,0,.12-.02,.24-.02,.36,.22,0,.44,0,.67,.02,.06,0,.12,.01,.18,.02,1.28,.14,2.58,.37,3.87,.64,1.33,.28,2.64,.59,3.88,.95,.22,.06,.49,.13,.7,.21,5.88,1.78,9.84,5.54,9.84,9.69,0,6.03-4.54,8.83-9.34,10.09,.02,.14,.03,.28,.02,.43-.02,.38-.12,.75-.29,1.1-1.19,2.35-5.53,4.23-10.54,4.42-.21,0-.42,0-.64,.01-1.03,1.07-2.39,2.19-4.09,3.18-.14,.09-.33,.19-.48,.28-1.06,.63-2.25,1.22-3.51,1.81-2.9,1.36-6.6,2.36-11.27,2.44-.42,0-.82-.02-1.23-.03-.59,.5-1.34,.95-2.22,1.34-.13,.06-.26,.11-.39,.16-.16,.06-.32,.12-.49,.18-.04,.01-.09,.03-.13,.04-1.07,.37-2.27,.72-3.54,.98-1.06,.21-2.27,.35-3.59,.38-.94,.02-1.87-.03-2.78-.13-.45-.05-.88-.11-1.31-.19-.4,.27-.82,.52-1.25,.76-.25,.13-.5,.26-.75,.4-.89,.45-1.85,.89-2.85,1.31-2.75,1.14-6.07,1.81-9.64,1.83-.33,0-.66,0-.98-.01-4.87-.14-9.15-1.49-12.11-3.49-1.37-.92-2.57-1.93-3.53-2.95-.14-.15-.28-.31-.41-.46-.86,.13-1.76,.2-2.69,.22-.18,0-.37,0-.55,0-2.59,0-4.92-.44-6.7-1.13-1.25-.48-2.33-1.06-3.16-1.69-7.6-.47-14.06-3.13-17.79-6.82-1.3-1.29-2.39-2.66-3.19-4.04-.1-.17-.19-.34-.28-.51-.65-.12-1.25-.28-1.82-.45-.86-.34-1.65-.77-2.37-1.22-1.67-1.07-2.82-2.36-2.93-3.73-.06-.77,.26-1.51,.83-2.18-3.44-1.49-5.98-3.71-7.02-6.26-.37-.9-.54-1.85-.51-2.83,.16-5.6,7.11-10.25,16.11-10.79-.01-.12-.03-.24-.02-.37Z"/><path class="ef" d="M16.65,236.72c.2-1.06,1.21-2.11,2.54-3.09,.73-.54,1.54-1.07,2.39-1.53,1.67-.61,3.9-1.06,6.47-1.06,1.3,0,2.52,.11,3.63,.3,1.32,.36,2.49,1.13,3.53,2.07,1.29,1.17,2.29,2.55,2.55,3.91,.17,.85-.12,1.64-.64,2.41-.86,1.26-1.91,2.33-3.32,2.78,.06,.04,.11,.07,.17,.11,.35,.23,.69,.48,1,.73,1.17,.93,2.07,1.99,2.64,3.14,.5,0,.99,0,1.49,.02,5.68,.2,10.69,1.64,14.28,3.79,1.68,1,3.33,2.02,4.8,2.96,.56,.36,1.1,.7,1.58,1.05,1,.71,1.87,1.55,2.61,2.45,.46-.16,.94-.3,1.45-.42,1.85-.44,3.94-.6,5.98-.44,.89,.07,1.78,.16,2.63,.24,1.33,.13,2.59,.25,3.68,.41,.78,.12,1.52,.31,2.19,.53,1.62-1.36,3.67-2.52,6-3.4,1.54-.58,3.12-1.22,4.65-1.82-.32-.24-.64-.5-.97-.77-1.66-1.37-3.27-2.92-4.52-4.44-1.02-1.23-1.62-2.6-1.79-4.03-.07-.64-.06-1.26,.07-1.86,.15-.68,.44-1.35,.86-2.01,.32-.51,.67-1.01,1.04-1.5-1.02-.36-2.02-.86-3-1.39-1.89-1-3.53-2.13-4.35-3.29-.23-.33-.38-.68-.45-1.04,.18-1.36,1.54-2.61,3.64-3.42s4.64-1.2,7.32-1.09c.85,.03,1.64,.13,2.36,.24,3.74,.78,6.95,2.43,8,4.23,.06,.11,.12,.22,.16,.34,.53-.03,1.07-.05,1.61-.05,.16,0,.32,0,.48,0,9.42,.14,16.8,4.84,17.01,10.37,0,.12,0,.23-.01,.34,.21,.02,.4,.03,.61,.06,.05,.01,.11,.03,.16,.04,1.14,.28,2.36,.62,3.63,.97s2.61,.67,3.87,1.01c.2,.06,.51,.12,.7,.18,6.08,1.6,10.18,5.36,10.18,9.35,0,5.55-4.08,8.33-8.91,9.61,0,.13,.01,.26,0,.39-.04,.35-.14,.69-.33,1.01-1.27,2.19-5.34,4.05-9.87,4.44-.21,.02-.41,.03-.63,.04-1.04,1.01-2.45,2.08-4.24,2.97-.12,.08-.36,.17-.5,.25-1.08,.59-2.31,1.16-3.54,1.8-2.81,1.45-6.49,2.61-11.25,2.76-.42,.01-.82,0-1.24,0-.62,.46-1.39,.87-2.28,1.22-.13,.05-.26,.1-.4,.14-.16,.05-.33,.11-.5,.16-.04,.01-.09,.03-.13,.04-1.1,.33-2.3,.72-3.55,1.03-.98,.24-2.2,.43-3.59,.48-.93,.04-1.87,0-2.8-.09-.45-.04-.89-.1-1.32-.17-.41,.24-.85,.46-1.29,.66-.25,.11-.51,.23-.77,.35-.92,.41-1.89,.84-2.88,1.29-2.72,1.21-6.08,1.93-9.68,1.97-.33,0-.66,0-.99,0-5.02-.13-9.35-1.57-12.16-3.61-1.33-.96-2.58-1.96-3.61-2.88-.15-.14-.3-.27-.45-.41-.86,.12-1.75,.2-2.67,.22-.18,0-.37,0-.55,0-2.65-.02-4.97-.49-6.64-1.17-1.21-.5-2.29-1.07-3.15-1.64-7.74-.48-14.2-3.25-17.68-6.95-1.24-1.32-2.36-2.68-3.26-3.95-.11-.16-.21-.31-.31-.47-.66-.13-1.26-.29-1.82-.46-.74-.4-1.44-.88-2.11-1.38-1.53-1.14-2.72-2.42-2.94-3.73-.12-.71,.15-1.4,.62-2.02-3.31-1.46-5.73-3.61-6.67-6.03-.33-.86-.46-1.76-.4-2.7,.31-5.24,6.93-9.65,15.59-10.18,0-.11-.01-.22,0-.33Z"/><path class="dx" d="M16.68,237.23c.31-.97,1.39-1.96,2.67-2.95,.72-.56,1.48-1.14,2.25-1.67,1.59-.6,3.8-1.09,6.44-1.09,1.31,0,2.53,.12,3.63,.31,.97,.38,1.84,1.23,2.73,2.26,1.08,1.26,2.06,2.7,2.46,4.05,.25,.84,.04,1.62-.38,2.39-.74,1.36-1.39,2.49-2.39,2.89,.06,.03,.11,.07,.17,.1,.36,.21,.71,.42,1.03,.64,1.21,.83,2.17,1.78,2.84,2.82,.5,0,.99,.02,1.49,.04,5.78,.3,10.76,1.91,14.11,4.17,1.6,1.08,3.27,2.11,4.78,2.94,.57,.31,1.12,.6,1.63,.89,1.01,.57,1.93,1.3,2.75,2.08,.46-.15,.95-.28,1.46-.38,1.91-.39,4.02-.49,5.99-.25,.88,.11,1.77,.22,2.62,.29,1.32,.11,2.58,.16,3.65,.22,.76,.04,1.48,.17,2.16,.31,1.64-1.33,3.7-2.46,6.05-3.3,1.56-.56,3.12-1.26,4.55-1.97-.27-.26-.54-.55-.82-.83-1.44-1.47-3.01-3.08-4.35-4.53-1.09-1.18-1.76-2.51-2-3.88-.11-.63-.14-1.25-.02-1.85,.13-.67,.43-1.35,.86-2.01,.33-.5,.67-1.01,1.03-1.51-.85-.45-1.74-1.05-2.67-1.64-1.75-1.1-3.39-2.23-4.33-3.29-.26-.3-.43-.62-.54-.95,.27-1.24,1.61-2.38,3.64-3.08s4.56-1.04,7.06-.88c.83,.05,1.59,.18,2.26,.3,3.4,.92,6.49,2.52,7.66,4.15,.07,.1,.13,.2,.18,.3,.51-.03,1.03-.05,1.56-.05,.16,0,.31,0,.47,0,9.17,.12,16.26,4.64,16.57,9.82,0,.11,0,.22,0,.33,.19,.03,.37,.06,.55,.1,.05,.02,.09,.04,.14,.06,1,.41,2.15,.88,3.39,1.3s2.59,.75,3.85,1.07c.19,.05,.54,.1,.7,.16,6.29,1.42,10.52,5.18,10.52,9,0,5.07-3.63,7.82-8.47,9.13,0,.12,0,.23-.02,.35-.05,.31-.17,.62-.36,.91-1.35,2.03-5.16,3.87-9.21,4.45-.2,.03-.41,.05-.63,.07-1.05,.95-2.51,1.96-4.39,2.75-.11,.07-.38,.15-.51,.22-1.12,.56-2.37,1.11-3.58,1.79-2.72,1.54-6.37,2.85-11.23,3.08-.42,.02-.83,0-1.25,.01-.65,.42-1.44,.79-2.35,1.1-.13,.04-.27,.08-.4,.12-.17,.05-.33,.09-.51,.14-.05,.01-.09,.02-.14,.03-1.13,.29-2.34,.72-3.56,1.08-.91,.27-2.14,.5-3.6,.58-.93,.05-1.87,.02-2.82-.05-.45-.04-.9-.09-1.34-.16-.43,.2-.88,.39-1.33,.56-.26,.1-.52,.19-.79,.3-.94,.36-1.94,.79-2.92,1.26-2.68,1.29-6.08,2.05-9.73,2.1-.33,0-.67,0-1,0-5.18-.11-9.54-1.66-12.21-3.73-1.3-1.01-2.58-1.99-3.68-2.81-.17-.12-.33-.24-.48-.36-.85,.12-1.74,.2-2.66,.21-.18,0-.36,0-.55,0-2.71-.02-5.01-.53-6.57-1.22-1.18-.52-2.25-1.08-3.14-1.6-7.88-.49-14.33-3.38-17.58-7.08-1.18-1.35-2.33-2.69-3.32-3.86-.12-.14-.23-.29-.34-.43-.66-.13-1.27-.3-1.81-.47-.63-.45-1.23-.99-1.86-1.54-1.38-1.21-2.62-2.47-2.95-3.73-.17-.65,.03-1.29,.4-1.87-3.18-1.43-5.49-3.51-6.32-5.81-.29-.82-.38-1.68-.3-2.57,.46-4.88,6.75-9.05,15.07-9.56,0-.1,0-.2,.03-.3Z"/><path class="ep" d="M16.71,237.74c.42-.89,1.57-1.81,2.8-2.82,.71-.59,1.43-1.22,2.11-1.8,1.5-.59,3.71-1.12,6.42-1.12,1.33,0,2.55,.12,3.64,.32,.62,.4,1.2,1.33,1.94,2.46,.88,1.35,1.83,2.85,2.37,4.19,.33,.83,.2,1.61-.12,2.37-.62,1.46-.88,2.65-1.47,3,.06,.03,.12,.06,.17,.09,.37,.18,.73,.36,1.07,.56,1.25,.72,2.28,1.57,3.04,2.5,.5,.01,.99,.03,1.49,.07,5.87,.4,10.83,2.18,13.94,4.55,1.52,1.16,3.2,2.19,4.76,2.93,.58,.27,1.15,.51,1.67,.73,1.02,.44,1.99,1.04,2.88,1.71,.47-.13,.96-.25,1.47-.34,1.97-.35,4.1-.38,6-.06,.87,.15,1.75,.27,2.61,.34,1.31,.1,2.56,.08,3.63,.03,.73-.03,1.45,.02,2.13,.09,1.66-1.3,3.74-2.39,6.11-3.2,1.58-.54,3.11-1.3,4.44-2.12-.21-.28-.44-.59-.68-.9-1.23-1.56-2.75-3.24-4.18-4.63-1.16-1.13-1.9-2.41-2.22-3.73-.15-.63-.21-1.25-.11-1.84,.12-.67,.41-1.34,.87-2.01,.34-.5,.68-1.01,1.01-1.52-.69-.54-1.46-1.23-2.34-1.89-1.6-1.2-3.26-2.32-4.3-3.3-.28-.26-.49-.56-.62-.86,.36-1.11,1.68-2.14,3.64-2.75,2.09-.64,4.48-.88,6.81-.67,.82,.07,1.54,.22,2.16,.35,3.07,1.06,6.03,2.62,7.31,4.06,.07,.08,.13,.17,.19,.26,.49-.03,.99-.05,1.5-.05,.15,0,.3,0,.45,0,8.91,.11,15.73,4.44,16.13,9.28,0,.11,0,.21,0,.32,.17,.05,.33,.09,.49,.14,.04,.03,.08,.05,.12,.08,.86,.55,1.93,1.13,3.15,1.63s2.56,.84,3.84,1.14c.17,.04,.56,.09,.71,.14,6.49,1.24,10.85,5.01,10.85,8.66,0,4.59-3.18,7.31-8.04,8.65-.01,.11-.02,.21-.05,.32-.07,.28-.2,.56-.39,.82-1.43,1.86-4.98,3.69-8.55,4.47-.2,.04-.4,.07-.63,.1-1.05,.89-2.57,1.84-4.55,2.53-.1,.07-.41,.13-.53,.19-1.15,.52-2.43,1.05-3.61,1.78-2.63,1.63-6.26,3.1-11.22,3.4-.42,.03-.83,.02-1.26,.03-.68,.38-1.49,.71-2.42,.98-.14,.04-.27,.07-.41,.11-.17,.04-.34,.08-.51,.12-.05,.01-.09,.02-.14,.03-1.16,.26-2.37,.71-3.57,1.13-.84,.29-2.08,.57-3.6,.68-.92,.07-1.87,.05-2.83-.02-.46-.03-.91-.08-1.35-.15-.45,.17-.9,.33-1.37,.46-.27,.08-.54,.16-.81,.25-.97,.32-1.98,.74-2.95,1.24-2.64,1.36-6.08,2.17-9.77,2.24-.34,0-.67,0-1.01,0-5.34-.1-9.74-1.74-12.26-3.85-1.26-1.06-2.58-2.02-3.76-2.74-.18-.11-.35-.21-.52-.31-.85,.12-1.73,.2-2.64,.21-.18,0-.36,0-.54,0-2.77-.03-5.06-.58-6.51-1.26-1.14-.54-2.21-1.09-3.13-1.55-8.03-.5-14.46-3.52-17.48-7.22-1.12-1.38-2.31-2.7-3.39-3.77-.13-.13-.25-.26-.37-.39-.67-.14-1.28-.3-1.81-.48-.51-.51-1.02-1.11-1.6-1.7-1.24-1.28-2.51-2.52-2.97-3.73-.22-.58-.09-1.18,.19-1.72-3.05-1.4-5.24-3.41-5.97-5.58-.26-.77-.31-1.59-.19-2.44,.61-4.52,6.57-8.45,14.56-8.95,.02-.09,.02-.18,.06-.26Z"/><path class="eu" d="M16.74,238.25c.54-.82,1.75-1.66,2.93-2.69,.71-.62,1.37-1.29,1.98-1.94,1.41-.58,3.61-1.15,6.39-1.15,1.35,0,2.57,.13,3.64,.33,.28,.42,.56,1.42,1.15,2.65,.68,1.43,1.6,3,2.27,4.33,.41,.81,.36,1.6,.13,2.35-.49,1.58-.37,2.81-.54,3.12,.06,.02,.12,.05,.18,.07,.38,.15,.75,.31,1.1,.48,1.29,.62,2.39,1.36,3.23,2.19,.5,.02,1,.05,1.49,.09,5.97,.51,10.89,2.46,13.77,4.93,1.44,1.24,3.14,2.28,4.75,2.91,.6,.23,1.18,.41,1.72,.57,1.03,.3,2.05,.79,3.02,1.34,.47-.12,.97-.23,1.48-.3,2.03-.3,4.19-.27,6.01,.13,.86,.19,1.74,.33,2.6,.38,1.3,.09,2.55,0,3.61-.17,.71-.11,1.42-.12,2.11-.12,1.68-1.27,3.78-2.33,6.16-3.1,1.6-.51,3.11-1.34,4.34-2.27-.16-.3-.33-.63-.53-.97-1.01-1.66-2.5-3.4-4.01-4.72-1.23-1.08-2.05-2.32-2.43-3.58-.19-.63-.28-1.24-.2-1.83,.1-.66,.4-1.33,.88-2.01,.35-.49,.68-1.01,1-1.53-.53-.63-1.18-1.41-2-2.15-1.46-1.29-3.12-2.42-4.28-3.3-.31-.23-.54-.5-.71-.77,.45-.98,1.76-1.9,3.65-2.41,2.1-.57,4.4-.71,6.55-.47,.8,.09,1.49,.26,2.05,.4,2.73,1.21,5.57,2.71,6.97,3.98,.08,.07,.14,.15,.21,.22,.48-.03,.96-.05,1.44-.05,.15,0,.29,0,.43,0,8.66,.09,15.19,4.25,15.69,8.74,.01,.1,.01,.2,.02,.3,.15,.06,.29,.11,.43,.18,.03,.03,.07,.07,.1,.1,.72,.68,1.72,1.38,2.91,1.95s2.53,.93,3.82,1.2c.15,.03,.58,.07,.71,.11,6.7,1.07,11.19,4.83,11.19,8.32,0,4.11-2.72,6.8-7.61,8.17-.02,.09-.04,.19-.07,.28-.09,.25-.23,.5-.43,.73-1.52,1.7-4.8,3.51-7.88,4.48-.19,.04-.4,.09-.63,.13-1.06,.84-2.63,1.72-4.7,2.32-.08,.06-.43,.12-.54,.16-1.19,.48-2.49,.99-3.65,1.77-2.54,1.71-6.15,3.34-11.2,3.72-.42,.03-.84,.04-1.27,.05-.72,.34-1.55,.63-2.48,.86-.14,.03-.28,.06-.42,.09-.17,.03-.35,.07-.52,.1-.05,0-.1,.02-.15,.03-1.19,.22-2.4,.7-3.58,1.18-.77,.31-2.01,.63-3.61,.77-.91,.08-1.86,.08-2.85,.02-.46-.03-.92-.08-1.37-.14-.46,.14-.93,.27-1.41,.37-.27,.06-.55,.12-.83,.2-.99,.27-2.02,.69-2.99,1.22-2.6,1.43-6.08,2.3-9.82,2.38-.34,0-.68,0-1.02,0-5.49-.08-9.93-1.83-12.3-3.96-1.23-1.1-2.58-2.05-3.83-2.67-.19-.09-.37-.18-.55-.26-.85,.12-1.72,.19-2.62,.21-.18,0-.36,0-.54,0-2.82-.04-5.1-.63-6.44-1.3-1.11-.56-2.17-1.1-3.12-1.5-8.17-.51-14.59-3.65-17.37-7.35-1.06-1.41-2.28-2.72-3.46-3.68-.14-.12-.28-.24-.4-.36-.68-.14-1.28-.31-1.8-.5-.39-.56-.82-1.22-1.34-1.86-1.1-1.34-2.38-2.57-2.98-3.73-.27-.52-.2-1.07-.03-1.56-2.92-1.37-4.99-3.31-5.62-5.36-.22-.73-.23-1.51-.08-2.31,.75-4.16,6.39-7.85,14.04-8.33,.02-.08,.04-.16,.08-.23Z"/><path class="eg" d="M16.78,238.76c.68-.74,1.93-1.51,3.07-2.56,.7-.65,1.32-1.37,1.84-2.07,1.32-.57,3.51-1.18,6.37-1.18,1.36,0,2.59,.13,3.65,.34-.07,.44-.07,1.51,.35,2.85,.48,1.5,1.37,3.15,2.18,4.47,.49,.8,.54,1.59,.39,2.34-.34,1.7,.14,2.98,.38,3.23,.06,.02,.12,.04,.18,.06,.39,.12,.76,.25,1.13,.39,1.34,.51,2.49,1.15,3.43,1.87,.5,.03,1,.06,1.49,.11,6.07,.62,10.96,2.75,13.6,5.32,1.36,1.33,3.07,2.37,4.73,2.89,.61,.19,1.2,.32,1.76,.41,1.03,.17,2.11,.53,3.16,.98,.48-.11,.98-.2,1.49-.26,2.09-.26,4.27-.15,6.02,.31,.85,.23,1.73,.38,2.59,.43,1.3,.07,2.53-.09,3.58-.36,.68-.18,1.39-.27,2.08-.34,1.7-1.24,3.82-2.27,6.21-3,1.62-.49,3.11-1.38,4.23-2.42-.1-.33-.23-.67-.39-1.03-.79-1.75-2.24-3.56-3.84-4.81-1.31-1.02-2.19-2.23-2.65-3.43-.24-.63-.36-1.24-.28-1.83,.08-.65,.38-1.32,.88-2,.36-.49,.69-1.01,.99-1.53-.37-.72-.9-1.59-1.67-2.4-1.32-1.38-2.98-2.51-4.26-3.3-.33-.2-.59-.44-.8-.68,.54-.86,1.83-1.66,3.65-2.07,2.12-.48,4.32-.54,6.3-.26,.79,.11,1.44,.3,1.95,.45,2.4,1.35,5.09,2.81,6.63,3.89,.08,.06,.15,.12,.22,.18,.46-.03,.92-.04,1.38-.05,.14,0,.28,0,.42,0,8.41,.08,14.67,4.05,15.25,8.19,.01,.1,.02,.19,.03,.29,.13,.07,.25,.14,.37,.22,.03,.04,.05,.08,.08,.12,.59,.81,1.51,1.63,2.66,2.28s2.5,1.01,3.81,1.27c.13,.03,.61,.06,.71,.09,6.91,.89,11.52,4.65,11.52,7.97,0,3.63-2.27,6.29-7.17,7.68-.03,.08-.06,.16-.1,.25-.11,.22-.26,.44-.46,.64-1.62,1.53-4.61,3.33-7.22,4.5-.19,.05-.39,.11-.62,.16-1.06,.78-2.69,1.61-4.85,2.1-.07,.05-.46,.1-.56,.13-1.23,.44-2.55,.93-3.68,1.76-2.45,1.8-6.04,3.58-11.18,4.04-.42,.04-.85,.05-1.28,.07-.75,.3-1.6,.55-2.55,.74-.14,.03-.29,.05-.43,.07-.18,.03-.35,.05-.53,.08-.05,0-.1,.01-.15,.02-1.21,.18-2.43,.69-3.59,1.23-.7,.33-1.95,.7-3.61,.87-.9,.09-1.86,.11-2.87,.06-.47-.02-.93-.07-1.38-.12-.48,.11-.96,.2-1.45,.27-.28,.04-.57,.09-.85,.15-1.02,.23-2.06,.64-3.02,1.2-2.56,1.5-6.08,2.42-9.86,2.51-.34,0-.68,.01-1.03,0-5.65-.07-10.12-1.93-12.35-4.08-1.19-1.15-2.58-2.08-3.91-2.6-.2-.08-.39-.14-.58-.2-.84,.12-1.72,.19-2.6,.2-.18,0-.36,0-.54,0-2.88-.05-5.14-.68-6.37-1.35-1.07-.58-2.13-1.11-3.11-1.46-8.31-.51-14.71-3.79-17.27-7.48-1-1.45-2.26-2.73-3.52-3.59-.15-.1-.3-.21-.44-.32-.69-.15-1.29-.32-1.8-.51-.27-.62-.61-1.33-1.09-2.02-.97-1.39-2.25-2.62-2.99-3.73-.31-.46-.32-.96-.24-1.41-2.79-1.34-4.75-3.21-5.27-5.13-.18-.69-.15-1.42,.02-2.18,.88-3.79,6.21-7.25,13.52-7.72,.03-.06,.06-.13,.11-.19Z"/><path class="et" d="M16.81,239.27c.84-.65,2.1-1.36,3.2-2.43,.69-.67,1.26-1.45,1.7-2.21,1.23-.56,3.41-1.21,6.34-1.21,1.38,0,2.61,.14,3.65,.35-.41,.45-.7,1.6-.44,3.04,.29,1.58,1.14,3.3,2.09,4.61,.57,.79,.72,1.59,.65,2.32-.18,1.82,.65,3.14,1.31,3.34,.06,.02,.12,.03,.18,.05,.39,.1,.78,.19,1.17,.31,1.38,.41,2.6,.94,3.63,1.55,.5,.04,1,.08,1.49,.14,6.16,.73,11.01,3.04,13.43,5.7,1.28,1.41,3,2.45,4.71,2.88,.62,.15,1.23,.22,1.8,.25,1.04,.04,2.17,.28,3.3,.61,.48-.09,.98-.17,1.5-.22,2.15-.21,4.35-.03,6.03,.5,.84,.27,1.72,.44,2.58,.47,1.29,.06,2.52-.16,3.56-.55,.66-.25,1.35-.41,2.05-.56,1.72-1.21,3.86-2.21,6.26-2.9,1.64-.47,3.1-1.43,4.13-2.57-.05-.35-.12-.72-.24-1.1-.58-1.84-1.99-3.72-3.67-4.91-1.38-.97-2.34-2.13-2.86-3.29-.28-.63-.43-1.23-.37-1.82,.07-.65,.37-1.32,.89-2,.37-.49,.69-1.01,.98-1.54-.21-.81-.63-1.77-1.34-2.65-1.18-1.46-2.83-2.62-4.24-3.3-.35-.17-.65-.38-.89-.59,.63-.73,1.91-1.41,3.65-1.74,2.14-.4,4.24-.37,6.05-.05,.77,.14,1.39,.35,1.85,.5,2.07,1.49,4.61,2.92,6.28,3.81,.09,.05,.16,.1,.24,.15,.44-.03,.88-.04,1.33-.05,.13,0,.27,0,.4,0,8.15,.06,14.14,3.85,14.81,7.65,.02,.09,.03,.18,.04,.27,.11,.09,.22,.17,.31,.26,.02,.05,.04,.09,.06,.14,.45,.93,1.29,1.88,2.42,2.61s2.47,1.11,3.8,1.33c.12,.02,.63,.04,.71,.07,7.11,.71,11.86,4.47,11.86,7.63s-1.81,5.78-6.74,7.2c-.04,.07-.07,.14-.12,.21-.13,.19-.29,.38-.5,.54-1.73,1.36-4.43,3.15-6.55,4.51-.18,.06-.39,.12-.62,.19-1.07,.72-2.75,1.49-5,1.88-.06,.04-.49,.07-.58,.1-1.27,.39-2.61,.86-3.71,1.75-2.36,1.88-5.92,3.82-11.17,4.36-.42,.04-.85,.07-1.29,.09-.78,.26-1.65,.47-2.61,.62-.15,.02-.29,.04-.44,.05-.18,.02-.36,.04-.54,.06-.05,0-.1,.01-.15,.02-1.24,.15-2.47,.67-3.6,1.28-.63,.34-1.89,.77-3.62,.97-.89,.11-1.86,.14-2.89,.1-.47-.02-.94-.06-1.4-.11-.5,.08-.99,.14-1.49,.17-.29,.02-.58,.05-.87,.11-1.05,.18-2.11,.59-3.06,1.18-2.53,1.57-6.09,2.54-9.91,2.65-.34,.01-.69,.01-1.03,0-5.8-.06-10.31-2.02-12.4-4.2-1.15-1.2-2.58-2.12-3.98-2.52-.21-.06-.41-.11-.62-.15-.84,.12-1.71,.19-2.59,.2-.18,0-.36,0-.53,0-2.94-.06-5.19-.73-6.31-1.39-1.03-.61-2.09-1.12-3.1-1.41-8.46-.52-14.83-3.94-17.17-7.62-.94-1.48-2.23-2.75-3.59-3.5-.16-.09-.32-.18-.47-.28-.7-.15-1.3-.33-1.79-.52-.15-.67-.4-1.43-.83-2.17-.83-1.45-2.11-2.68-3-3.73-.34-.4-.44-.85-.46-1.26-2.66-1.31-4.5-3.11-4.92-4.91-.15-.65-.08-1.33,.13-2.06,1-3.43,6.02-6.65,13-7.11,.04-.05,.08-.11,.13-.16Z"/><path class="en" d="M16.84,239.78c1-.54,2.28-1.22,3.33-2.3,.68-.7,1.2-1.52,1.56-2.34,1.14-.55,3.31-1.24,6.32-1.24,1.4,0,2.63,.15,3.66,.36-.76,.47-1.32,1.69-1.23,3.23,.1,1.66,.91,3.45,2,4.75,.64,.78,.9,1.58,.9,2.3,0,1.94,1.16,3.3,2.23,3.45,.06,.01,.12,.02,.19,.03,.4,.07,.8,.14,1.2,.22,1.42,.31,2.71,.73,3.83,1.24,.5,.04,1,.1,1.49,.16,6.26,.84,11.06,3.33,13.25,6.08,1.2,1.5,2.93,2.54,4.69,2.86,.63,.12,1.25,.13,1.85,.09,1.04-.08,2.23,.02,3.44,.24,.49-.08,.99-.15,1.51-.18,2.21-.16,4.43,.09,6.04,.69,.83,.31,1.7,.49,2.57,.52,1.28,.04,2.51-.24,3.54-.74,.63-.31,1.32-.55,2.03-.77,1.74-1.18,3.9-2.14,6.31-2.8,1.66-.45,3.1-1.47,4.03-2.72,0-.37-.02-.76-.1-1.16-.37-1.94-1.73-3.87-3.5-5-1.45-.92-2.5-2.03-3.07-3.14-.33-.62-.51-1.23-.46-1.81,.05-.64,.35-1.31,.89-2,.38-.48,.7-1.01,.96-1.55-.05-.9-.35-1.94-1.01-2.91-1.05-1.54-2.69-2.72-4.22-3.31-.38-.14-.7-.32-.98-.5,.72-.61,1.99-1.16,3.65-1.4,2.15-.31,4.15-.19,5.79,.16,.76,.16,1.34,.39,1.75,.55,1.73,1.64,4.13,3.04,5.94,3.72,.09,.03,.17,.07,.25,.11,.42-.02,.84-.04,1.27-.05,.13,0,.26,0,.39,0,7.9,.05,13.63,3.66,14.36,7.1,.02,.09,.03,.17,.05,.26,.1,.1,.18,.2,.25,.3,.01,.05,.03,.11,.04,.16,.32,1.06,1.08,2.13,2.18,2.94s2.43,1.2,3.78,1.39c.1,.01,.65,.02,.72,.05,7.32,.53,12.19,4.3,12.19,7.28,0,2.68-1.36,5.27-6.31,6.72-.05,.06-.09,.12-.15,.17-.15,.16-.32,.31-.53,.45-1.84,1.18-4.25,2.97-5.89,4.53-.18,.07-.38,.14-.62,.22-1.07,.66-2.81,1.37-5.16,1.67-.04,.03-.52,.05-.59,.07-1.32,.33-2.67,.8-3.75,1.73-2.27,1.96-5.81,4.05-11.15,4.68-.43,.05-.86,.08-1.3,.11-.81,.21-1.71,.39-2.68,.5-.15,.02-.3,.02-.45,.03-.18,.01-.37,.02-.55,.04-.05,0-.1,0-.16,.01-1.27,.11-2.5,.64-3.61,1.33-.56,.35-1.82,.83-3.62,1.07-.88,.12-1.86,.16-2.91,.13-.48-.01-.95-.05-1.41-.1-.51,.05-1.02,.07-1.53,.07-.3,0-.59,.02-.89,.06-1.07,.14-2.15,.53-3.09,1.16-2.49,1.64-6.09,2.66-9.95,2.79-.35,.01-.69,.02-1.04,.01-5.96-.04-10.49-2.12-12.45-4.32-1.11-1.25-2.59-2.15-4.06-2.45-.22-.05-.43-.08-.65-.1-.83,.12-1.7,.19-2.57,.19-.18,0-.35,0-.53,0-3-.06-5.23-.79-6.24-1.44s-2.05-1.13-3.09-1.37c-8.6-.53-14.94-4.08-17.06-7.75-.88-1.52-2.2-2.76-3.66-3.41-.18-.08-.34-.16-.5-.24-.71-.16-1.3-.34-1.79-.53-.04-.73-.2-1.54-.58-2.33-.71-1.5-1.96-2.75-3.02-3.73-.37-.34-.55-.74-.67-1.1-2.53-1.28-4.26-3.01-4.57-4.68-.11-.6,0-1.25,.24-1.93,1.11-3.07,5.84-6.05,12.49-6.49,.05-.04,.1-.09,.16-.12Z"/><path class="ex" d="M16.87,240.29c1.16-.4,2.46-1.07,3.46-2.17,.67-.73,1.15-1.6,1.42-2.48,1.05-.55,3.21-1.27,6.29-1.27,1.42,0,2.64,.15,3.66,.37-1.11,.49-1.95,1.79-2.02,3.43-.08,1.74,.68,3.6,1.9,4.89,.72,.76,1.09,1.57,1.16,2.28,.2,2.05,1.67,3.46,3.16,3.56,.06,0,.13,.02,.19,.02,.41,.04,.82,.08,1.23,.14,1.46,.2,2.81,.52,4.03,.92,.5,.05,1,.11,1.49,.18,6.35,.95,11.11,3.63,13.08,6.46,1.11,1.59,2.87,2.63,4.67,2.85,.64,.08,1.28,.05,1.89-.07,1.05-.2,2.29-.23,3.58-.13,.49-.07,1-.12,1.52-.14,2.27-.11,4.51,.22,6.06,.88,.82,.35,1.69,.55,2.56,.57,1.27,.03,2.5-.31,3.51-.94,.61-.38,1.29-.7,2-.99,1.75-1.15,3.94-2.08,6.37-2.7,1.68-.43,3.1-1.51,3.92-2.87,.06-.39,.08-.8,.05-1.23-.17-2.03-1.48-4.03-3.34-5.1-1.52-.87-2.65-1.93-3.29-2.99-.37-.62-.58-1.22-.55-1.8,.03-.63,.34-1.3,.9-2,.39-.48,.7-1.01,.95-1.56,.11-.99-.08-2.12-.68-3.16-.92-1.62-2.55-2.83-4.2-3.31-.4-.12-.75-.26-1.06-.41,.81-.48,2.06-.91,3.66-1.06,2.17-.21,4.07,0,5.54,.37,.74,.19,1.29,.43,1.65,.61,1.4,1.78,3.64,3.17,5.59,3.64,.09,.02,.18,.05,.27,.07,.4-.02,.8-.04,1.21-.05,.12,0,.25,0,.37,0,7.65,.03,13.12,3.46,13.92,6.56,.02,.08,.04,.17,.05,.25,.08,.11,.14,.23,.19,.34,0,.06,.01,.12,.02,.18,.18,1.19,.87,2.38,1.94,3.27s2.4,1.31,3.77,1.46c.08,0,.68,0,.72,.02,7.52,.36,12.53,4.12,12.53,6.94,0,2.2-.91,4.77-5.87,6.24-.05,.05-.11,.09-.17,.14-.16,.12-.35,.25-.56,.36-1.95,.99-4.06,2.78-5.22,4.54-.17,.08-.38,.16-.61,.25-1.08,.6-2.87,1.25-5.31,1.45-.03,.02-.54,.03-.61,.04-1.37,.26-2.73,.74-3.78,1.72-2.18,2.05-5.7,4.28-11.13,5-.43,.05-.86,.1-1.31,.13-.84,.17-1.76,.31-2.75,.38-.15,.01-.3,.01-.45,.02-.19,0-.37,0-.56,.02-.05,0-.11,0-.16,0-1.3,.07-2.55,.61-3.62,1.38-.5,.36-1.76,.89-3.63,1.17-.87,.13-1.85,.19-2.93,.17-.48,0-.96-.04-1.42-.09-.53,.02-1.05,.01-1.57-.02-.3-.02-.61-.02-.91,0-1.1,.09-2.19,.48-3.13,1.14-2.46,1.71-6.09,2.78-10,2.92-.35,.01-.7,.02-1.05,.02-6.11-.03-10.68-2.22-12.5-4.44-1.07-1.31-2.59-2.18-4.13-2.38-.23-.03-.46-.05-.68-.05-.83,.12-1.69,.18-2.55,.19-.18,0-.35,0-.53,0-3.06-.07-5.27-.85-6.18-1.48s-2.01-1.14-3.08-1.32c-8.74-.54-15.05-4.23-16.96-7.88-.81-1.56-2.18-2.78-3.73-3.32-.19-.06-.36-.13-.53-.2-.72-.16-1.31-.35-1.78-.54,.08-.78,0-1.65-.32-2.49-.58-1.55-1.8-2.84-3.03-3.73-.4-.29-.67-.63-.89-.95-2.4-1.25-4.01-2.91-4.21-4.45-.07-.56,.06-1.16,.35-1.8,1.21-2.72,5.66-5.46,11.97-5.88,.06-.03,.12-.06,.18-.09Z"/><path class="f`" d="M16.9,240.8c1.31-.25,2.63-.92,3.6-2.04,.66-.76,1.09-1.67,1.28-2.62,.97-.54,3.12-1.3,6.26-1.3,1.43,0,2.66,.16,3.67,.38-1.45,.51-2.56,1.88-2.82,3.62s.45,3.76,1.81,5.03c.8,.75,1.28,1.56,1.42,2.26,.42,2.16,2.18,3.62,4.09,3.68,.06,0,.13,0,.19,0,.42,.01,.84,.03,1.27,.06,1.5,.1,2.92,.31,4.23,.6,.5,.06,1,.13,1.49,.21,6.45,1.08,11.15,3.92,12.91,6.84,1.02,1.69,2.8,2.73,4.65,2.83,.65,.04,1.3-.04,1.94-.23,1.06-.32,2.35-.49,3.72-.5,.5-.06,1.01-.09,1.53-.1,2.33-.05,4.59,.34,6.07,1.07,.81,.4,1.68,.6,2.55,.61,1.26,.01,2.49-.38,3.49-1.13,.59-.44,1.26-.84,1.97-1.21,1.77-1.12,3.98-2.02,6.42-2.6,1.7-.4,3.09-1.55,3.82-3.02,.12-.41,.18-.84,.19-1.3,.04-2.13-1.22-4.19-3.17-5.19-1.59-.82-2.81-1.83-3.5-2.84-.42-.61-.65-1.22-.64-1.79,.02-.63,.32-1.3,.9-2,.39-.48,.71-1.01,.94-1.56,.27-1.08,.18-2.29-.34-3.41-.79-1.7-2.41-2.94-4.18-3.31-.42-.09-.81-.2-1.15-.31,.9-.35,2.14-.65,3.66-.73,2.19-.11,3.99,.19,5.28,.58,.72,.22,1.24,.47,1.54,.66,1.07,1.92,3.17,3.32,5.25,3.55,.1,.01,.19,.02,.29,.03,.38-.02,.76-.04,1.15-.04,.12,0,.24,0,.36,0,7.39,.02,12.61,3.25,13.48,6.01,.02,.08,.05,.16,.06,.23,.06,.13,.1,.25,.14,.38,0,.07,0,.13,0,.2,.05,1.32,.66,2.63,1.7,3.59,1.02,.94,2.37,1.43,3.76,1.52,.06,0,.7,0,.72,0,7.73,.18,12.87,3.94,12.87,6.6,0,1.72-.45,4.26-5.44,5.76-.06,.03-.13,.07-.2,.1-.18,.09-.38,.18-.6,.26-2.07,.78-3.88,2.6-4.56,4.56-.17,.09-.37,.18-.61,.28-1.09,.54-2.94,1.14-5.46,1.23-.01,0-.57,0-.62,.01-1.42,.16-2.8,.68-3.82,1.71-2.1,2.13-5.59,4.52-11.12,5.32-.43,.06-.87,.11-1.32,.15-.88,.13-1.81,.22-2.81,.26-.16,0-.31,0-.46,0-.19,0-.38,0-.57,0-.06,0-.11,0-.17,0-1.33,.04-2.6,.57-3.63,1.43-.44,.36-1.7,.96-3.64,1.27-.86,.14-1.85,.22-2.95,.21-.48,0-.96-.03-1.44-.07-.54-.02-1.08-.05-1.61-.12-.31-.04-.62-.05-.93-.04-1.12,.05-2.23,.43-3.16,1.12-2.42,1.78-6.09,2.9-10.04,3.06-.35,.01-.71,.02-1.06,.02-6.27-.01-10.86-2.32-12.55-4.56-1.03-1.36-2.59-2.21-4.2-2.31-.24-.02-.48-.01-.72,0-.82,.12-1.68,.18-2.54,.18-.18,0-.35,0-.52,0-3.12-.08-5.3-.91-6.11-1.53-.91-.69-1.97-1.15-3.07-1.28-8.89-.55-15.16-4.37-16.86-8.01-.74-1.59-2.15-2.8-3.79-3.23-.2-.05-.38-.11-.56-.16-.73-.17-1.32-.36-1.78-.55,.2-.83,.2-1.75-.06-2.65-.47-1.61-1.64-2.94-3.04-3.72-.43-.24-.79-.52-1.1-.8-2.28-1.22-3.76-2.81-3.86-4.23-.04-.52,.13-1.08,.45-1.67,1.31-2.37,5.48-4.86,11.45-5.26,.07-.02,.14-.04,.21-.05Z"/><path class="de" d="M65.64,280.16c-6.42,0-11.03-2.43-12.6-4.68-.98-1.42-2.59-2.24-4.28-2.24-.25,0-.5,.02-.75,.05-.82,.12-1.67,.18-2.52,.18-3.46,0-5.82-.94-6.56-1.58-.86-.73-1.93-1.16-3.05-1.23-9.03-.56-15.26-4.52-16.75-8.15-.67-1.63-2.12-2.81-3.86-3.14-1.02-.19-1.8-.45-2.37-.69,.32-.89,.39-1.86,.19-2.81-.35-1.67-1.49-3.06-3.05-3.72-2.89-1.24-4.83-3.1-4.83-4.65,0-2.3,4.46-5.77,11.73-6.2,1.46-.09,2.81-.78,3.73-1.91,.65-.79,1.04-1.75,1.14-2.75,.88-.53,3.02-1.34,6.24-1.34,1.45,0,2.68,.16,3.68,.39-1.8,.53-3.18,1.98-3.61,3.81-.45,1.91,.22,3.91,1.72,5.17,.88,.74,1.48,1.54,1.68,2.24,.64,2.25,2.69,3.79,5.01,3.79,.06,0,.13,0,.2,0,.43-.01,.86-.03,1.3-.03,9.62,0,16.67,3.9,18.66,7.75,.92,1.78,2.73,2.82,4.63,2.82,.66,0,1.33-.13,1.98-.39,1.45-.6,3.37-.93,5.4-.93,2.39,0,4.67,.47,6.08,1.26,.79,.44,1.67,.66,2.54,.66,1.25,0,2.49-.45,3.47-1.32,1.98-1.77,4.97-3.16,8.42-3.93,2.18-.49,3.81-2.31,4.05-4.53,.24-2.22-.97-4.35-3-5.29-2.7-1.25-4.45-3-4.45-4.47,0-.62,.3-1.29,.91-2,1.24-1.45,1.59-3.46,.91-5.24-.67-1.78-2.27-3.05-4.15-3.31-.45-.06-.86-.14-1.24-.22,.99-.23,2.22-.39,3.66-.39,3.57,0,5.8,.99,6.47,1.49,.73,2.07,2.7,3.47,4.91,3.47,.1,0,.2,0,.3,0,.47-.03,.95-.05,1.43-.05,7.78,0,12.99,3.62,13.19,6.11,0,.07-.01,.14-.02,.22-.08,1.45,.45,2.88,1.46,3.92,.98,1.01,2.33,1.59,3.74,1.59,.04,0,.72-.02,.72-.02,7.94,0,13.2,3.76,13.2,6.25,0,1.3,0,4.02-5.86,5.52-2.18,.56-3.7,2.42-3.9,4.57-.88,.53-3.02,1.33-6.22,1.33,0,0-.6-.02-.64-.02-1.46,0-2.86,.62-3.85,1.7-2.47,2.71-7.14,5.95-15.31,5.95-.16,0-.31-.01-.47-.02-.19-.01-.39-.02-.58-.03-.06,0-.11,0-.17,0-1.36,0-2.66,.53-3.63,1.48-.54,.53-2.87,1.62-6.61,1.62-1.06,0-2.1-.09-3.1-.28-.32-.06-.63-.09-.95-.09-1.15,0-2.28,.38-3.2,1.1-2.59,2.02-6.76,3.22-11.15,3.22Z"/></g><g><path class="dp" d="M109.06,245.95c-8.33,0-15.37,3.45-17.63,8.18-.51,.19-1.01,.39-1.49,.61-3.74-1.52-8.21-2.41-13.01-2.41s-9.55,.96-13.36,2.57c-.67-.32-1.38-.62-2.12-.88-.23-6.21-8.36-11.2-18.39-11.2s-18.41,5.13-18.41,11.46c0,4.29,3.79,8.03,9.4,9.99,.23,6.21,8.36,11.2,18.39,11.2,1.54,0,3.02-.13,4.45-.35,4.23,4.11,11.62,6.83,20.04,6.83s15.69-2.68,19.94-6.73c1.24,.17,2.53,.26,3.86,.26,8.33,0,15.37-3.45,17.63-8.18,5.45-1.99,9.11-5.66,9.11-9.88,0-6.33-8.24-11.46-18.41-11.46Z"/><path class="ed" d="M25.09,254.22c0-3.85,3.45-7.4,8.68-9.25,3.12-1.1,6.68-1.66,10.29-1.42,.99,.06,1.92,.21,2.77,.38,1.7,.34,3.43,.85,5.09,1.37,.49,.15,.97,.32,1.44,.51,.64,.25,1.26,.5,1.86,.76,.56,.25,1.11,.49,1.62,.75,3.28,1.68,5.49,4.16,5.96,6.96,.74,.24,1.45,.51,2.14,.8,2.65-.98,5.61-1.66,8.76-1.91,.65-.05,1.32-.1,1.99-.14,.84-.05,1.7-.09,2.57-.12,.4-.01,.81-.02,1.21-.02,1.36,0,2.67,0,3.91,.07,2.63,.16,5.23,.69,7.67,1.47,.48-.21,.98-.41,1.49-.59,.72-1.26,1.79-2.44,3.2-3.4,3.73-2.56,9.06-3.67,14.47-3.51,9.24,.27,16.52,5.01,16.22,10.87-.12,2.25-1.31,4.37-3.24,6.17-1.43,1.32-3.32,2.45-5.53,3.29-2.27,4.44-9,7.68-16.98,7.68-1.08,0-2.15-.06-3.18-.18-.23-.03-.45-.05-.67-.08-.95,.79-2.02,1.57-3.18,2.32-4.22,2.73-10.19,4.42-16.76,4.42s-12.61-1.71-16.84-4.47c-1.17-.76-2.25-1.56-3.2-2.36-.26,.04-.51,.07-.77,.11-1.19,.16-2.42,.25-3.68,.25-6.66,0-12.38-2.23-15.32-5.4-1.61-1.73-2.65-3.74-2.91-5.77-5.41-1.9-9.08-5.48-9.08-9.54Z"/><path class="dw" d="M25.51,254.15c0-3.72,3.63-7.3,9.14-8.95,3.33-1,6.95-1.39,10.41-.94,1.01,.13,1.9,.37,2.67,.61,1.55,.5,3.23,1.17,4.93,1.71,.5,.16,.98,.33,1.46,.52,.65,.26,1.28,.5,1.9,.74,.58,.22,1.14,.43,1.66,.64,3.3,1.34,5.67,3.53,6.5,6.05,.75,.21,1.46,.46,2.15,.73,2.7-.86,5.67-1.41,8.76-1.52,.65-.02,1.32-.05,1.99-.09,.83-.05,1.68-.1,2.52-.16,.4-.03,.8-.05,1.2-.07,1.35-.05,2.64-.26,3.81-.2,2.44,.11,5.02,.29,7.56,.89,.48-.2,.98-.39,1.5-.57,.8-1.16,1.91-2.27,3.36-3.11,4.11-2.38,9.47-2.85,14.34-2.53,8.31,.54,14.64,4.88,14.03,10.28-.23,2.07-1.41,4.08-3.21,5.81-1.32,1.28-3.11,2.38-5.23,3.21-2.28,4.15-8.7,7.18-16.33,7.18-1.08,0-2.14-.06-3.18-.18-.23-.03-.45-.05-.67-.07-.99,.71-2.08,1.46-3.22,2.23-4.14,2.78-10.14,4.5-16.71,4.5s-12.65-1.74-16.8-4.56c-1.15-.78-2.25-1.55-3.24-2.27-.26,.03-.52,.07-.78,.1-1.2,.16-2.43,.25-3.68,.25-6.79,0-12.48-2.35-15.11-5.48-1.47-1.76-2.54-3.77-2.97-5.67-5.22-1.83-8.76-5.26-8.76-9.1Z"/><path class="ea" d="M25.94,254.07c0-3.58,3.81-7.19,9.59-8.65,3.55-.9,7.23-1.11,10.52-.45,1.02,.2,1.89,.53,2.57,.85,1.4,.67,3.03,1.49,4.77,2.04,.5,.16,.99,.34,1.48,.54,.65,.27,1.3,.5,1.93,.71,.59,.2,1.17,.36,1.7,.52,3.31,1,5.84,2.9,7.04,5.13,.75,.19,1.47,.41,2.16,.66,2.75-.74,5.72-1.17,8.76-1.14,.65,0,1.32,0,1.99-.03,.82-.04,1.66-.1,2.48-.19,.4-.04,.79-.08,1.19-.11,1.34-.1,2.59-.33,3.71-.47,2.25-.29,4.82-.11,7.45,.31,.48-.2,.99-.38,1.5-.55,.87-1.07,2.03-2.09,3.52-2.82,4.51-2.2,9.86-2.04,14.22-1.56,7.36,.81,12.75,4.76,11.84,9.7-.35,1.89-1.51,3.78-3.18,5.46-1.22,1.23-2.91,2.31-4.92,3.14-2.29,3.85-8.4,6.68-15.67,6.68-1.08,0-2.14-.06-3.18-.18-.23-.03-.45-.05-.68-.07-1.03,.63-2.14,1.36-3.26,2.14-4.06,2.83-10.09,4.59-16.67,4.59s-12.69-1.78-16.75-4.65c-1.13-.8-2.25-1.54-3.28-2.18-.26,.03-.52,.06-.78,.1-1.2,.16-2.43,.26-3.67,.26-6.91,0-12.58-2.47-14.89-5.56-1.34-1.79-2.42-3.8-3.03-5.56-5.03-1.76-8.45-5.05-8.45-8.65Z"/><path class="er" d="M26.36,254c0-3.44,3.99-7.08,10.04-8.35,3.76-.79,7.5-.81,10.64,.03,1.04,.28,1.87,.69,2.46,1.09,1.25,.84,2.84,1.8,4.61,2.38,.51,.16,1,.35,1.5,.55,.66,.27,1.32,.5,1.97,.69,.6,.17,1.19,.29,1.74,.4,3.31,.67,6.02,2.27,7.57,4.22,.75,.17,1.48,.36,2.18,.59,2.8-.62,5.77-.92,8.76-.75,.65,.04,1.31,.05,1.98,.02,.81-.04,1.63-.11,2.44-.23,.39-.06,.79-.11,1.19-.16,1.34-.14,2.55-.49,3.61-.74,2.05-.49,4.61-.52,7.34-.28,.48-.19,.99-.37,1.51-.53,.95-.97,2.16-1.91,3.69-2.53,4.93-1.99,10.25-1.22,14.09-.58,6.41,1.07,10.86,4.63,9.65,9.11-.46,1.71-1.62,3.49-3.14,5.11-1.12,1.19-2.7,2.24-4.62,3.07-2.29,3.56-8.1,6.18-15.02,6.18-1.07,0-2.14-.06-3.18-.19-.23-.03-.45-.05-.68-.07-1.06,.55-2.2,1.25-3.3,2.06-3.98,2.89-10.04,4.68-16.63,4.68s-12.73-1.81-16.71-4.74c-1.11-.82-2.26-1.53-3.33-2.09-.26,.03-.52,.06-.78,.09-1.21,.17-2.44,.26-3.67,.26-7.04,0-12.68-2.61-14.68-5.63-1.2-1.82-2.3-3.83-3.08-5.46-4.83-1.69-8.13-4.83-8.13-8.2Z"/><path class="eh" d="M26.79,253.93c0-3.31,4.17-6.97,10.49-8.05,3.97-.68,7.78-.49,10.75,.52,1.05,.36,1.85,.86,2.36,1.32,1.1,1.02,2.64,2.12,4.45,2.71,.51,.17,1.01,.36,1.51,.57,.67,.28,1.34,.5,2.01,.66,.62,.15,1.22,.23,1.79,.29,3.31,.36,6.19,1.63,8.11,3.31,.75,.14,1.48,.31,2.19,.51,2.85-.5,5.83-.67,8.76-.36,.65,.07,1.31,.1,1.98,.07,.8-.03,1.61-.11,2.4-.26,.39-.07,.78-.14,1.18-.2,1.33-.19,2.5-.64,3.51-1.01,1.84-.69,4.4-.92,7.23-.86,.49-.18,.99-.35,1.52-.51,1.02-.88,2.29-1.72,3.85-2.23,5.36-1.77,10.62-.41,13.96,.39,5.44,1.32,8.98,4.51,7.45,8.52-.58,1.53-1.72,3.19-3.11,4.76-1.02,1.14-2.5,2.17-4.31,2.99-2.3,3.27-7.8,5.68-14.36,5.68-1.07,0-2.13-.07-3.18-.19-.23-.03-.45-.05-.68-.07-1.1,.47-2.26,1.15-3.35,1.97-3.9,2.94-9.99,4.77-16.59,4.77s-12.77-1.85-16.67-4.82c-1.09-.84-2.26-1.52-3.37-2-.26,.02-.52,.05-.78,.09-1.21,.17-2.44,.26-3.67,.26-7.16,0-12.77-2.75-14.46-5.71-1.06-1.86-2.18-3.85-3.14-5.35-4.64-1.63-7.81-4.61-7.81-7.76Z"/><path class="ej" d="M27.22,253.86c0-3.17,4.35-6.85,10.94-7.75,4.18-.57,8.05-.16,10.87,1,1.07,.44,1.84,1.04,2.25,1.56,.95,1.2,2.44,2.44,4.29,3.05,.51,.17,1.02,.36,1.53,.59,.67,.29,1.37,.5,2.04,.63,.63,.12,1.25,.13,1.83,.17,3.29,.25,6.37,1,8.64,2.4,.75,.12,1.49,.27,2.21,.44,2.9-.38,5.88-.41,8.76,.02,.64,.1,1.31,.14,1.98,.12,.79-.03,1.58-.12,2.36-.29,.39-.09,.77-.17,1.17-.24,1.32-.24,2.45-.78,3.41-1.29,1.64-.86,4.19-1.33,7.11-1.44,.49-.18,1-.34,1.52-.49,1.09-.78,2.43-1.52,4.01-1.94,5.79-1.53,10.97,.38,13.84,1.37,4.46,1.54,7.09,4.39,5.26,7.93-.7,1.36-1.82,2.89-3.08,4.4-.92,1.1-2.29,2.1-4.01,2.92-2.3,2.98-7.5,5.18-13.71,5.18-1.07,0-2.13-.07-3.17-.19-.23-.03-.45-.05-.68-.06-1.14,.4-2.32,1.04-3.39,1.88-3.82,3-9.93,4.85-16.55,4.85s-12.81-1.88-16.62-4.91c-1.07-.86-2.27-1.51-3.41-1.92-.26,.02-.52,.05-.78,.08-1.22,.17-2.45,.27-3.67,.27-7.29,0-12.85-2.89-14.25-5.79-.92-1.9-2.06-3.88-3.2-5.25-4.45-1.56-7.5-4.39-7.5-7.31Z"/><path class="ei" d="M27.64,253.79c0-3.03,4.54-6.74,11.39-7.45,4.4-.46,8.31,.18,10.99,1.49,1.08,.53,1.81,1.21,2.15,1.8,.79,1.39,2.25,2.75,4.13,3.38,.52,.17,1.03,.37,1.55,.6,.68,.3,1.39,.5,2.08,.61,.64,.1,1.27,.1,1.87,.05,3.3-.26,6.54,.37,9.18,1.49,.76,.09,1.5,.22,2.22,.37,2.95-.26,5.93-.16,8.76,.41,.64,.13,1.31,.19,1.98,.18,.78-.02,1.56-.13,2.31-.33,.38-.1,.77-.2,1.16-.29,1.31-.28,2.41-.92,3.31-1.56,1.44-1.03,3.98-1.73,7-2.02,.49-.17,1-.33,1.53-.47,1.17-.69,2.56-1.32,4.17-1.65,6.22-1.26,11.3,1.16,13.71,2.35,3.45,1.71,5.2,4.26,3.07,7.34-.81,1.18-1.92,2.6-3.04,4.05-.82,1.05-2.09,2.03-3.71,2.84-2.31,2.68-7.2,4.68-13.06,4.68-1.06,0-2.13-.07-3.17-.2-.23-.03-.46-.05-.68-.06-1.18,.32-2.38,.93-3.43,1.79-3.74,3.05-9.88,4.94-16.51,4.94s-12.85-1.92-16.58-5c-1.05-.87-2.27-1.51-3.46-1.83-.26,.01-.52,.04-.79,.08-1.22,.18-2.45,.27-3.66,.27-7.41,0-12.92-3.05-14.04-5.87-.77-1.95-1.94-3.91-3.25-5.14-4.25-1.49-7.18-4.18-7.18-6.86Z"/><path class="ey" d="M28.07,253.72c0-2.9,4.72-6.62,11.84-7.15,4.61-.35,8.57,.53,11.1,1.98,1.09,.62,1.79,1.38,2.04,2.04,.62,1.59,2.05,3.07,3.97,3.72,.52,.18,1.04,.38,1.57,.62,.68,.31,1.41,.5,2.12,.58,.65,.07,1.3,.04,1.91-.06,3.3-.55,6.72-.26,9.71,.57,.76,.07,1.5,.17,2.23,.3,3-.14,5.99,.1,8.76,.79,.64,.16,1.3,.24,1.97,.23,.77-.02,1.54-.13,2.27-.36,.38-.12,.76-.23,1.15-.33,1.3-.33,2.37-1.04,3.21-1.83,1.26-1.18,3.77-2.14,6.89-2.6,.49-.16,1-.31,1.53-.45,1.24-.59,2.7-1.12,4.34-1.36,6.66-.98,11.96,1.51,13.58,3.32,2.77,1.25,3.32,4.14,.88,6.75-.93,1-2.02,2.3-3.01,3.7-.72,1-1.89,1.96-3.4,2.77-2.31,2.39-6.9,4.18-12.4,4.18-1.06,0-2.13-.07-3.17-.2-.23-.03-.46-.05-.68-.06-1.22,.24-2.44,.83-3.47,1.71-3.66,3.1-9.83,5.03-16.46,5.03s-12.88-1.95-16.54-5.09c-1.03-.89-2.27-1.5-3.5-1.74-.26,.01-.52,.04-.79,.07-1.23,.18-2.46,.28-3.66,.28-7.53,0-12.98-3.2-13.82-5.95-.61-2-1.82-3.94-3.31-5.04-4.06-1.42-6.86-3.96-6.86-6.41Z"/><path class="fa" d="M28.5,253.65c0-2.76,4.9-6.5,12.3-6.85,4.82-.23,8.82,.89,11.22,2.46,1.1,.72,1.76,1.56,1.94,2.27,.45,1.78,1.85,3.38,3.8,4.06,.53,.18,1.05,.39,1.58,.63,.69,.32,1.43,.5,2.15,.55,.67,.05,1.33-.02,1.95-.18,3.31-.84,6.89-.9,10.25-.34,.76,.05,1.51,.12,2.25,.22,3.05-.02,6.04,.36,8.76,1.18,.64,.19,1.3,.29,1.97,.28,.75-.01,1.51-.14,2.23-.39,.37-.13,.75-.26,1.14-.37,1.29-.37,2.34-1.17,3.11-2.1,1.09-1.33,3.56-2.54,6.78-3.19,.49-.16,1.01-.3,1.54-.43,1.32-.5,2.83-.91,4.5-1.07,7.09-.67,12.37,2.26,13.45,4.3,1.85,1.4,1.43,4.01-1.31,6.16-1.05,.82-2.12,2.01-2.98,3.35-.62,.96-1.68,1.9-3.1,2.7-2.32,2.1-6.59,3.68-11.75,3.68-1.06,0-2.12-.07-3.17-.2-.23-.03-.46-.05-.68-.05-1.26,.16-2.5,.72-3.51,1.62-3.58,3.16-9.78,5.12-16.42,5.12s-12.92-1.98-16.49-5.18c-1.02-.91-2.28-1.49-3.54-1.65-.26,0-.53,.03-.79,.07-1.23,.19-2.46,.28-3.66,.28-7.66,0-13.03-3.36-13.61-6.02-.45-2.05-1.7-3.96-3.37-4.93-3.87-1.36-6.55-3.74-6.55-5.97Z"/><path class="ev" d="M28.92,253.58c0-2.62,5.08-6.37,12.75-6.55,5.04-.11,9.06,1.25,11.33,2.95,1.1,.82,1.73,1.73,1.83,2.51,.26,1.96,1.66,3.7,3.64,4.39,.53,.18,1.06,.4,1.6,.65,.7,.33,1.45,.5,2.19,.53,.68,.02,1.36-.08,1.99-.3,3.32-1.13,7.07-1.53,10.79-1.25,.76,.02,1.52,.07,2.26,.15,3.1,.1,6.09,.62,8.76,1.56,.63,.22,1.3,.34,1.97,.33,.74,0,1.49-.15,2.19-.43,.37-.15,.75-.29,1.14-.42,1.29-.42,2.33-1.29,3.01-2.37,.93-1.48,3.36-2.95,6.67-3.77,.49-.15,1.01-.29,1.55-.41,1.39-.4,2.96-.7,4.66-.78,7.52-.34,12.45,3.12,13.33,5.28,.68,1.68-.45,3.89-3.5,5.58-1.16,.64-2.22,1.71-2.94,2.99-.52,.91-1.48,1.83-2.8,2.62-2.33,1.81-6.29,3.17-11.1,3.17-1.05,0-2.12-.07-3.17-.21-.23-.03-.46-.05-.69-.05-1.29,.08-2.56,.62-3.56,1.53-3.5,3.21-9.73,5.2-16.38,5.2s-12.96-2.02-16.45-5.27c-1-.93-2.28-1.48-3.59-1.56-.26,0-.53,.03-.79,.07-1.24,.19-2.47,.29-3.66,.29-7.78,0-13.06-3.51-13.4-6.1-.27-2.1-1.58-3.99-3.43-4.83-3.67-1.29-6.23-3.52-6.23-5.52Z"/><path class="ew" d="M76.41,275.96c-6.72,0-13-2.05-16.41-5.36-.98-.95-2.28-1.47-3.63-1.47-.26,0-.53,.02-.79,.06-1.24,.19-2.47,.29-3.65,.29-7.91,0-13.09-3.66-13.18-6.18-.08-2.14-1.46-4.02-3.48-4.73-3.48-1.22-5.91-3.31-5.91-5.07,0-2.49,5.26-6.25,13.2-6.25s13.09,3.66,13.18,6.18c.08,2.14,1.46,4.02,3.48,4.73,.54,.19,1.06,.41,1.62,.67,.7,.33,1.47,.5,2.23,.5,.69,0,1.38-.14,2.04-.41,3.33-1.41,7.25-2.16,11.32-2.16s7.79,.7,11.04,2.03c.63,.26,1.3,.39,1.97,.39,.73,0,1.46-.15,2.15-.46,.37-.17,.74-.32,1.13-.46,1.28-.47,2.32-1.42,2.91-2.64,1.21-2.53,6.16-5.22,12.94-5.22,7.94,0,13.2,3.76,13.2,6.25,0,1.71-2.34,3.76-5.69,4.99-1.28,.47-2.32,1.41-2.91,2.64-1.21,2.53-6.16,5.22-12.94,5.22-1.05,0-2.12-.07-3.17-.21-.23-.03-.46-.05-.69-.05-1.33,0-2.62,.51-3.6,1.44-3.42,3.26-9.68,5.29-16.34,5.29Z"/></g><path class="dq" d="M114.08,239.68c.36-.67,.56-1.38,.56-2.12,0-3.69-4.81-6.69-10.74-6.69-.19,0-.37,.01-.55,.02,.1-.43,.18-.86,.18-1.31,0-4.73-6.16-8.56-13.75-8.56-2.06,0-4.01,.29-5.76,.79-1.93-1.17-4.56-1.89-7.47-1.89-3.93,0-7.36,1.32-9.23,3.28-2.42-1.25-5.53-2-8.91-2-5.46,0-10.17,1.95-12.47,4.79-1.7-.71-3.74-1.12-5.94-1.12-5.93,0-10.74,2.99-10.74,6.69,0,.58,.13,1.14,.35,1.67-2.07-.73-4.45-1.15-6.99-1.15-7.86,0-14.22,3.96-14.22,8.86,0,1.59,.68,3.08,1.86,4.37-2.83,1.77-4.58,4.22-4.58,6.91,0,5.01,6.03,9.13,13.81,9.74,.09,5.04,6.66,9.11,14.78,9.11,5.48,0,10.26-1.86,12.81-4.62,3.28,3.34,9.18,5.57,15.92,5.57,5.82,0,11.02-1.66,14.45-4.26,3.19,1.58,7.22,2.53,11.61,2.53,9.82,0,17.85-4.72,18.6-10.71,.05,0,.1,0,.14,0,9.17,0,16.61-4.63,16.61-10.34,0-4.32-4.27-8.02-10.32-9.57Zm-39.48,11.61c-3.19-1.58-7.21-2.53-11.6-2.53-7.84,0-14.54,3.01-17.31,7.27-2.12-1.61-5.11-2.76-8.52-3.18,.02-.2,.05-.41,.05-.61,0-2.25-1.22-4.31-3.26-5.96,1.8-1.48,2.88-3.32,2.88-5.33,0-1.13-.36-2.21-.98-3.21,1.27,.33,2.67,.51,4.13,.51,3.3,0,6.25-.93,8.22-2.39,2.55,1.69,6.16,2.76,10.19,2.76,6.23,0,11.5-2.54,13.3-6.04,1.46,.46,3.1,.72,4.84,.72,.28,0,.56-.01,.84-.03,2.22,2.88,6.92,4.87,12.39,4.87,1.18,0,2.32-.1,3.41-.28,.12,1.59,1.13,3.04,2.73,4.15-2.18,1.39-3.74,3.15-4.39,5.12-.82-.07-1.64-.12-2.49-.12-5.82,0-11.02,1.66-14.45,4.26Z"/><path class="du" d="M61.93,268.74c-5.63,0-10.88-1.78-13.69-4.64-.59-.6-1.39-.93-2.23-.93h-.05c-.85,.01-1.67,.38-2.25,1-2.03,2.2-6.16,3.62-10.52,3.62-6.8,0-11.6-3.18-11.65-6.03-.03-1.61-1.28-2.94-2.88-3.06-6.75-.52-10.93-3.84-10.93-6.62,0-1.47,1.13-3.03,3.11-4.27,.79-.49,1.31-1.31,1.44-2.23,.13-.92-.16-1.85-.79-2.53-.7-.76-1.05-1.52-1.05-2.26,0-2.71,4.75-5.73,11.1-5.73,2.09,0,4.15,.34,5.96,.97,.34,.12,.69,.18,1.04,.18,.84,0,1.67-.34,2.27-.98,.85-.9,1.09-2.21,.62-3.35-.07-.18-.11-.34-.11-.48,0-1.42,3.04-3.56,7.61-3.56,1.72,0,3.36,.3,4.74,.88,.39,.16,.79,.24,1.2,.24,.92,0,1.82-.41,2.43-1.15,1.79-2.21,5.73-3.63,10.04-3.63,2.76,0,5.42,.59,7.48,1.65,.46,.23,.95,.35,1.43,.35,.84,0,1.66-.33,2.27-.97,1.02-1.07,3.45-2.31,6.97-2.31,2.21,0,4.34,.52,5.85,1.44,.49,.3,1.05,.45,1.62,.45,.29,0,.58-.04,.87-.12,1.55-.45,3.2-.67,4.89-.67,6.08,0,10.62,2.87,10.62,5.43,0,.14-.03,.33-.09,.56-.23,.95,0,1.96,.61,2.71,.6,.73,1.49,1.16,2.43,1.16,.04,0,.47-.02,.55-.02,4.58,0,7.61,2.14,7.61,3.56,0,.19-.06,.4-.19,.64-.45,.85-.5,1.86-.11,2.74,.39,.88,1.16,1.53,2.09,1.77,4.69,1.2,7.97,3.88,7.97,6.54,0,3.41-5.54,7.21-13.48,7.21,0,0-.12,0-.15,0-1.57,0-2.9,1.17-3.1,2.73-.48,3.83-6.55,7.97-15.5,7.97-3.72,0-7.35-.78-10.22-2.2-.44-.22-.91-.32-1.39-.32-.67,0-1.34,.22-1.89,.64-3.03,2.3-7.61,3.62-12.55,3.62Zm-27.13-34.28c-.98,0-1.92,.46-2.52,1.28-.76,1.03-.81,2.42-.13,3.51,.34,.54,.5,1.04,.5,1.55,0,1.22-.95,2.26-1.74,2.92-.72,.6-1.14,1.49-1.14,2.42,0,.94,.43,1.82,1.15,2.42,.96,.78,2.1,2.03,2.1,3.54l-.03,.3c-.17,1.69,1.04,3.2,2.72,3.41,2.79,.35,5.28,1.26,7.02,2.57,.55,.41,1.21,.63,1.89,.63,.18,0,.36-.01,.54-.05,.86-.15,1.61-.65,2.08-1.38,1.89-2.91,7.17-5.85,14.69-5.85,3.72,0,7.35,.78,10.22,2.2,.44,.22,.91,.33,1.39,.33,.67,0,1.33-.22,1.89-.64,3.04-2.3,7.61-3.62,12.56-3.62,.66,0,1.37,.03,2.23,.1,.09,0,.17,.01,.26,.01,1.34,0,2.54-.85,2.96-2.14,.41-1.22,1.51-2.45,3.1-3.47,.88-.56,1.43-1.53,1.45-2.58,.02-1.05-.48-2.03-1.35-2.63-.84-.59-1.35-1.25-1.39-1.81-.06-.87-.49-1.68-1.18-2.22-.56-.44-1.24-.67-1.94-.67-.16,0-.33,.01-.49,.04-.99,.16-1.97,.24-2.92,.24-4.9,0-8.51-1.83-9.91-3.65-.59-.77-1.51-1.22-2.48-1.22-.05,0-.1,0-.15,0-.23,.01-.46,.02-.69,.02-1.37,0-2.68-.19-3.9-.58-.31-.1-.63-.14-.94-.14-1.14,0-2.23,.63-2.78,1.69-1.12,2.16-5.09,4.35-10.53,4.35-3.24,0-6.32-.81-8.46-2.24-.53-.35-1.13-.52-1.73-.52-.66,0-1.31,.21-1.86,.62-1.5,1.11-3.88,1.78-6.36,1.78-1.16,0-2.29-.14-3.35-.41-.26-.07-.52-.1-.79-.1Z"/><path class="dm" d="M61.68,264.72c-5.02,0-9.81-1.58-12.21-4.01-.98-1-2.32-1.56-3.71-1.56-.03,0-.05,0-.08,0-1.42,.02-2.78,.63-3.74,1.67-1.36,1.47-4.66,2.95-8.98,2.95-6.17,0-9.54-2.83-9.57-3.98-.04-2.69-2.13-4.9-4.81-5.11-5.83-.45-9.01-3.24-9.01-4.54,0-.71,.84-1.69,2.14-2.5,1.31-.82,2.19-2.18,2.39-3.71,.21-1.53-.28-3.08-1.32-4.22-.37-.4-.5-.71-.5-.86,0-.94,3.1-3.65,9.01-3.65,1.86,0,3.68,.29,5.27,.85,.57,.2,1.15,.3,1.73,.3,.36,0,.72-.04,1.08-.11,.09,.75,.34,1.49,.76,2.16,.13,.22,.18,.37,.18,.45,0,.24-.31,.75-.98,1.31-1.21,.99-1.9,2.48-1.89,4.04,0,1.56,.71,3.04,1.92,4.02,.79,.64,1.28,1.32,1.33,1.83l-.02,.18c-.28,2.81,1.73,5.34,4.54,5.69,2.4,.3,4.59,1.09,6.02,2.17,.91,.69,2.02,1.06,3.14,1.06,.3,0,.6-.03,.9-.08,1.42-.25,2.68-1.08,3.47-2.29,1.54-2.36,6.24-4.9,12.94-4.9,3.4,0,6.7,.7,9.29,1.99,.73,.36,1.52,.54,2.31,.54,1.12,0,2.23-.36,3.15-1.06,2.64-2,6.86-3.2,11.3-3.2,.61,0,1.26,.03,2.05,.1,.14,.01,.29,.02,.44,.02,2.23,0,4.23-1.42,4.94-3.57,.25-.76,1.07-1.62,2.25-2.37,1.47-.94,2.38-2.55,2.41-4.29,.03-1.74-.81-3.39-2.24-4.38-.29-.2-.45-.36-.52-.46-.16-1.38-.85-2.64-1.95-3.5-.93-.73-2.07-1.12-3.23-1.12-.27,0-.55,.02-.82,.07-.88,.14-1.74,.21-2.59,.21-4.18,0-7.21-1.47-8.26-2.84-.99-1.28-2.52-2.03-4.13-2.03-.09,0-.18,0-.27,0-.19,0-.38,.02-.57,.02-1.14,0-2.28-.17-3.27-.48-.52-.16-1.05-.24-1.57-.24-.56,0-1.11,.09-1.62,.26,.36-.23,.7-.5,1.01-.82,.77-.8,2.8-1.67,5.46-1.67,1.84,0,3.58,.41,4.78,1.14,.82,.49,1.75,.75,2.69,.75,.48,0,.97-.07,1.44-.2,1.36-.39,2.82-.59,4.32-.59,5.51,0,8.54,2.52,8.54,3.35h0s-.01,.03-.02,.06c-.39,1.58-.01,3.26,1.01,4.53,.99,1.22,2.48,1.93,4.05,1.93,.06,0,.55-.02,.55-.02,2.82,0,4.72,.96,5.38,1.56-.55,1.31-.55,2.81,.03,4.12,.64,1.47,1.93,2.56,3.48,2.95,3.95,1.01,6.4,3.13,6.4,4.52,0,1.8-4.29,5.1-11.32,5.13-.07,0-.15,0-.22,0-2.62,0-4.84,1.95-5.17,4.56-.32,2.57-5.59,6.15-13.44,6.15-3.41,0-6.7-.71-9.29-1.99-.73-.36-1.52-.54-2.31-.54-1.12,0-2.23,.36-3.15,1.06-2.64,2-6.86,3.2-11.29,3.2Zm-4.59-33.4c-2.84,0-5.5-.69-7.31-1.89-.86-.57-1.84-.86-2.82-.87,.64-.32,1.23-.78,1.7-1.37,1.12-1.38,4.23-2.86,8.43-2.86,2.43,0,4.75,.5,6.52,1.42,.76,.39,1.58,.58,2.39,.58,.55,0,1.1-.09,1.63-.26-.77,.48-1.42,1.17-1.87,2.03-.67,1.3-3.89,3.22-8.67,3.22Zm-18.41-.37c-.99,0-1.94-.12-2.82-.35-.44-.11-.88-.17-1.31-.17-.36,0-.72,.04-1.08,.11-.04-.32-.1-.64-.2-.95,.62-.6,2.54-1.59,5.41-1.59,1.83,0,3.15,.39,3.95,.72,.63,.26,1.29,.39,1.94,.4-.26,.13-.52,.29-.76,.47-.89,.66-2.7,1.36-5.12,1.36Z"/><path class="e`" d="M61.68,261.59c-4.09,0-8.19-1.27-9.98-3.08-.07-.07-.14-.14-.21-.21,.96-1.19,4.4-3.3,10.19-3.3,2.93,0,5.74,.59,7.91,1.66,1.14,.56,2.42,.86,3.7,.86,1.81,0,3.6-.6,5.04-1.69,2.09-1.58,5.69-2.57,9.41-2.57,.52,0,1.09,.03,1.79,.09,.23,.02,.47,.03,.7,.03,3.56,0,6.71-2.24,7.87-5.6,.1-.13,.4-.45,1-.83,2.36-1.5,3.8-4.07,3.86-6.87,.02-1.03-.15-2.03-.48-2.97,.12,0,.23,0,.23,0,.68,0,1.27,.08,1.75,.2-.04,1.24,.19,2.48,.7,3.62,1.04,2.37,3.07,4.09,5.57,4.73,1.6,.41,2.76,1,3.45,1.49-1.2,.85-3.75,1.98-7.55,2-.09,0-.18,0-.27,0-4.15,0-7.68,3.08-8.26,7.18-.51,1.04-4.21,3.53-10.35,3.53-2.94,0-5.74-.59-7.91-1.66-1.14-.57-2.42-.87-3.7-.87-1.81,0-3.6,.6-5.04,1.7-2.08,1.58-5.69,2.56-9.41,2.56Zm-28.73-.95c-3.67,0-5.78-1.17-6.5-1.75-.46-3.93-3.61-7.02-7.63-7.33-2.49-.19-4.19-.86-5.2-1.44,1.96-1.33,3.26-3.42,3.58-5.78,.24-1.76-.09-3.51-.9-5.04,1.02-.48,2.67-.97,5-.97,1.51,0,2.97,.23,4.22,.68,.16,.05,.31,.1,.47,.15-1.09,1.44-1.69,3.21-1.68,5.06,.01,2.51,1.13,4.86,3.08,6.44,.05,.04,.09,.08,.13,.11,0,4.2,3.07,7.74,7.31,8.27,1.08,.13,2.14,.4,3.02,.75-1.18,.48-2.85,.87-4.89,.87Zm24.14-32.45c-1.11,0-2.19-.13-3.15-.37,.87-.22,1.92-.37,3.15-.37,1.1,0,2.17,.13,3.14,.37-.87,.22-1.93,.37-3.14,.37Zm31.37-.48c-.92,0-1.74-.08-2.45-.22,.79-.15,1.61-.23,2.45-.23,.94,0,1.77,.09,2.48,.22-.13,.01-.26,.03-.39,.05-.71,.12-1.42,.17-2.1,.17Z"/></g><g><g><path class="cb" d="M93.24,138.55l21.96,11.7v-14.81c0-2.08-.39-3.9-1.15-5.35l-9.48-18.05c-2.04-3.88-6.46-4.57-11.32-1.77h0v28.27Z"/><path class="cc" d="M43.57,138.55l-21.96,11.7v-14.81c0-2.08,.39-3.9,1.15-5.35l9.49-18.05c2.04-3.88,6.46-4.57,11.32-1.77h0v28.27Z"/></g><g><g><path class="cr" d="M80.08,188.61c0,12.43-5.23,44.96-11.67,44.96s-11.67-32.53-11.67-44.96c0-10.94,5.22-13.58,11.67-13.58s11.67,2.64,11.67,13.58Z"/><path class="dc" d="M79.45,188.46c0,12.13-4.95,44.35-11.05,44.35s-11.05-32.22-11.05-44.35c0-10.68,4.95-13.25,11.05-13.25s11.05,2.57,11.05,13.25Z"/><path class="db" d="M78.83,188.31c0,11.84-4.67,43.75-10.43,43.75s-10.43-31.91-10.43-43.75c0-10.42,4.67-12.93,10.43-12.93s10.43,2.51,10.43,12.93Z"/><path class="dd" d="M78.21,188.16c0,11.54-4.39,43.14-9.8,43.14s-9.8-31.6-9.8-43.14c0-10.16,4.39-12.61,9.8-12.61s9.8,2.45,9.8,12.61Z"/><path class="ct" d="M77.59,188c0,11.25-4.11,42.53-9.18,42.53s-9.18-31.29-9.18-42.53c0-9.9,4.11-12.29,9.18-12.29s9.18,2.39,9.18,12.29Z"/><path class="da" d="M76.96,187.85c0,10.95-3.83,41.93-8.56,41.93s-8.56-30.98-8.56-41.93c0-9.64,3.83-11.96,8.56-11.96s8.56,2.32,8.56,11.96Z"/><path class="cy" d="M76.34,187.7c0,10.66-3.55,41.32-7.93,41.32s-7.93-30.67-7.93-41.32c0-9.38,3.55-11.64,7.93-11.64s7.93,2.26,7.93,11.64Z"/><path class="d`" d="M75.72,187.55c0,10.36-3.27,40.72-7.31,40.72s-7.31-30.36-7.31-40.72c0-9.12,3.27-11.32,7.31-11.32s7.31,2.2,7.31,11.32Z"/><path class="cx" d="M75.09,187.4c0,10.06-3,40.11-6.69,40.11s-6.69-30.05-6.69-40.11c0-8.86,2.99-10.99,6.69-10.99s6.69,2.14,6.69,10.99Z"/><path class="cw" d="M74.47,187.25c0,9.77-2.72,39.5-6.06,39.5s-6.06-29.73-6.06-39.5c0-8.6,2.71-10.67,6.06-10.67s6.06,2.07,6.06,10.67Z"/><path class="cu" d="M73.85,187.1c0,9.47-2.44,38.9-5.44,38.9s-5.44-29.42-5.44-38.9c0-8.34,2.44-10.35,5.44-10.35s5.44,2.01,5.44,10.35Z"/><path class="cv" d="M73.22,186.95c0,9.18-2.16,38.29-4.82,38.29s-4.82-29.11-4.82-38.29c0-8.08,2.16-10.03,4.82-10.03s4.82,1.95,4.82,10.03Z"/></g><path class="cf" d="M78.86,171.26h-20.91v2.95h0s0,.06,0,.08c0,3.36,4.68,6.09,10.46,6.09s10.46-2.73,10.46-6.09c0-.03,0-.06,0-.08h0v-2.95Z"/><path class="cj" d="M93.38,145.1H43.43v14.84h0c0,.07,0,.13,0,.2,0,8.03,11.18,14.54,24.98,14.54s24.98-6.51,24.98-14.54c0-.07,0-.13,0-.2h0v-14.84Z"/><path class="dk" d="M93.38,145.62H43.43v11.83h0c0,.05,0,.11,0,.16,0,6.41,11.18,11.6,24.98,11.6s24.98-5.19,24.98-11.6c0-.05,0-.11,0-.16h0v-11.83Z"/><g><path class="cm" d="M107.46,95.97c2.53-21.17-2.37-42.71-14.48-60.25-.51-.74-1.03-1.47-1.55-2.19L68.4,2l-23.02,31.53c-.53,.72-1.05,1.45-1.55,2.19-12.11,17.55-17.01,39.08-14.48,60.25l5.88,49.16h.01c0,.09-.01,.18-.01,.27,0,10.67,14.85,19.32,33.17,19.32s33.17-8.65,33.17-19.32c0-.09,0-.18-.01-.27h.01l5.88-49.16Z"/><path class="cl" d="M91.42,33.53L68.4,2l-23.02,31.53c-.13,.18-.25,.36-.38,.54,3.98,5.22,12.96,8.86,23.39,8.86s19.41-3.64,23.39-8.86c-.13-.18-.25-.36-.38-.54Z"/><path class="dr" d="M91.42,33.53L68.4,2l-23.02,31.53c-.13,.18-.25,.36-.38,.54,3.98,5.22,12.96,8.86,23.39,8.86s19.41-3.64,23.39-8.86c-.13-.18-.25-.36-.38-.54Z"/><path class="dl" d="M107.46,95.97c2.53-21.17-2.37-42.71-14.48-60.25-.51-.74-1.03-1.47-1.55-2.19L68.4,2l-23.02,31.53c-.53,.72-1.05,1.45-1.55,2.19-12.11,17.55-17.01,39.08-14.48,60.25l5.88,49.16h.01c0,.09-.01,.18-.01,.27,0,10.67,14.85,19.32,33.17,19.32s33.17-8.65,33.17-19.32c0-.09,0-.18-.01-.27h.01l5.88-49.16Z"/><path class="dj" d="M83.99,68.65c-6.6-26.5-20.26-57.02-17.02-58.49,5.72-2.59,29.59,27.13,36.19,53.63,5.8,23.33-.74,81.41-6.78,82.91-6.04,1.5-6.59-54.72-12.39-78.05Z"/><g><path class="ce" d="M63.38,109.03c0,4.59-1.58,7.83-4.15,9.41-.08,.05-2.47,1.57-2.55,1.61-2.68,1.5-.96-1.9-5.03-4.25-8.18-4.72-14.81-16.16-14.81-25.55,0-4.64-4.29-4.68-1.66-6.23,.07-.04,2.98-1.64,3.06-1.68,2.67-1.45,6.32-1.18,10.34,1.14,8.18,4.72,14.81,16.16,14.81,25.55Z"/><path class="ck" d="M60.46,110.76c0,9.39-6.63,13.17-14.81,8.45-8.18-4.72-14.81-16.16-14.81-25.55s6.63-13.17,14.81-8.45c8.18,4.72,14.81,16.16,14.81,25.55Z"/><path class="cn" d="M57.67,109.15c0,7.62-5.38,10.69-12.03,6.86-6.64-3.84-12.03-13.12-12.03-20.75s5.39-10.69,12.03-6.86c6.64,3.84,12.03,13.12,12.03,20.75Z"/><path class="cs" d="M55.17,105.35c0,5.74-4.05,8.05-9.05,5.16-5-2.89-9.05-9.88-9.05-15.61s4.05-8.05,9.05-5.16c5,2.89,9.05,9.88,9.05,15.61Z"/><path class="co" d="M48.01,115.02c-6.64-3.84-12.03-13.12-12.03-20.75,0-3.51,1.14-6.06,3.03-7.41-3.25,.59-5.4,3.59-5.4,8.4,0,7.62,5.39,16.91,12.03,20.75,3.58,2.07,6.79,2.12,9,.55-1.9,.35-4.18-.12-6.63-1.54Z"/><path class="dg" d="M46.08,84.84c-3.92-2.26-7.98-2.11-9.86-1.22,2.47-.69,5.96-.27,9.28,1.64,8.18,4.72,14.81,16.16,14.81,25.55,0,4.89-2.23,8.35-5.11,9.79,3.02-1.12,5.68-4.63,5.68-10.21,0-9.39-6.63-20.83-14.81-25.55Z"/></g><path class="dh" d="M54.46,70.4C62.38,38.59,78.79,1.96,74.89,.19c-6.86-3.11-33.86,32.86-41.78,64.67-6.97,28-3.67,60.93,3.58,62.74,7.24,1.8,10.8-29.19,17.77-57.19Z"/></g></g><g><path class="ci" d="M43.81,158.85l-17.48,33.47-3.54-2.09v-14.17c0-1.99,.38-4.17,1.1-6.39l9.08-27.75c1.95-5.97,6.18-11.52,10.83-14.2h0l3.4,2.05-3.4,29.08Z"/><path class="ch" d="M47.35,160.94l-21.02,31.39v-14.17c0-1.99,.38-4.17,1.1-6.39l9.08-27.75c1.95-5.97,6.18-11.51,10.83-14.2h0v31.13Z"/><path class="df" d="M26.64,178.54c0-1.99,.38-4.17,1.1-6.39l9.08-27.75c1.87-5.71,5.81-11.01,10.22-13.82v-.84h0c-4.65,2.69-8.88,8.23-10.83,14.2l-9.08,27.75c-.73,2.22-1.1,4.4-1.1,6.39v14.17l.62-.92v-12.79Z"/><path class="cg" d="M92.99,158.85l17.48,33.47,3.54-2.09v-14.17c0-1.99-.38-4.17-1.1-6.39l-9.08-27.75c-1.95-5.97-6.18-11.52-10.83-14.2h0l-3.4,2.05,3.4,29.08Z"/><path class="cd" d="M89.46,160.94l21.02,31.39v-14.17c0-1.99-.38-4.17-1.1-6.39l-9.08-27.75c-1.95-5.97-6.18-11.51-10.83-14.2h0v31.13Z"/><path class="di" d="M109.83,171.77l-9.08-27.75c-1.95-5.97-6.18-11.51-10.83-14.2h0v.18c4.21,2.88,7.94,8,9.73,13.5l9.08,27.75c.73,2.22,1.1,4.4,1.1,6.39v13.05l1.1,1.64v-14.17c0-1.99-.38-4.17-1.1-6.39Z"/></g></g></g></g></g></svg>